<mxfile host="app.diagrams.net" agent="Mozilla/5.0 (X11; Linux x86_64) AppleWebKit/537.36 (KHTML, like Gecko) Chrome/134.0.0.0 Safari/537.36" version="26.2.14">
  <diagram name="Страница — 1" id="tywayqphzPVq5EnyWUu1">
    <mxGraphModel dx="6999" dy="1133" grid="1" gridSize="10" guides="1" tooltips="1" connect="1" arrows="1" fold="1" page="1" pageScale="1" pageWidth="827" pageHeight="1169" math="0" shadow="0">
      <root>
        <mxCell id="0" />
        <mxCell id="1" parent="0" />
        <mxCell id="veb8oJTyCX44iU3UPrQK-1" value="Data Generation Phase" style="html=1;dropTarget=0;whiteSpace=wrap;fillColor=#d5e8d4;strokeColor=#82b366;" vertex="1" parent="1">
          <mxGeometry x="-210" y="1240" width="180" height="90" as="geometry" />
        </mxCell>
        <mxCell id="veb8oJTyCX44iU3UPrQK-2" value="" style="shape=module;jettyWidth=8;jettyHeight=4;fillColor=#d5e8d4;strokeColor=#82b366;" vertex="1" parent="veb8oJTyCX44iU3UPrQK-1">
          <mxGeometry x="1" width="20" height="20" relative="1" as="geometry">
            <mxPoint x="-27" y="7" as="offset" />
          </mxGeometry>
        </mxCell>
        <mxCell id="veb8oJTyCX44iU3UPrQK-3" value="Data Generation Step" style="html=1;dropTarget=0;whiteSpace=wrap;" vertex="1" parent="1">
          <mxGeometry x="-210" y="1400" width="180" height="90" as="geometry" />
        </mxCell>
        <mxCell id="veb8oJTyCX44iU3UPrQK-4" value="" style="shape=module;jettyWidth=8;jettyHeight=4;" vertex="1" parent="veb8oJTyCX44iU3UPrQK-3">
          <mxGeometry x="1" width="20" height="20" relative="1" as="geometry">
            <mxPoint x="-27" y="7" as="offset" />
          </mxGeometry>
        </mxCell>
        <mxCell id="veb8oJTyCX44iU3UPrQK-5" value="" style="endArrow=diamondThin;endFill=0;endSize=24;html=1;rounded=0;" edge="1" parent="1" source="veb8oJTyCX44iU3UPrQK-3" target="veb8oJTyCX44iU3UPrQK-1">
          <mxGeometry width="160" relative="1" as="geometry">
            <mxPoint x="-170" y="1360" as="sourcePoint" />
            <mxPoint x="-10" y="1360" as="targetPoint" />
          </mxGeometry>
        </mxCell>
        <mxCell id="veb8oJTyCX44iU3UPrQK-6" value="" style="endArrow=diamondThin;endFill=0;endSize=24;html=1;rounded=0;" edge="1" parent="1" source="veb8oJTyCX44iU3UPrQK-54" target="veb8oJTyCX44iU3UPrQK-3">
          <mxGeometry width="160" relative="1" as="geometry">
            <mxPoint x="-120.34" y="1560" as="sourcePoint" />
            <mxPoint x="-120.34" y="1490" as="targetPoint" />
          </mxGeometry>
        </mxCell>
        <mxCell id="veb8oJTyCX44iU3UPrQK-7" value="Generated Data Manager" style="html=1;dropTarget=0;whiteSpace=wrap;" vertex="1" parent="1">
          <mxGeometry x="110" y="1240" width="180" height="90" as="geometry" />
        </mxCell>
        <mxCell id="veb8oJTyCX44iU3UPrQK-8" value="" style="shape=module;jettyWidth=8;jettyHeight=4;" vertex="1" parent="veb8oJTyCX44iU3UPrQK-7">
          <mxGeometry x="1" width="20" height="20" relative="1" as="geometry">
            <mxPoint x="-27" y="7" as="offset" />
          </mxGeometry>
        </mxCell>
        <mxCell id="veb8oJTyCX44iU3UPrQK-9" value="Gen. data storage" style="shape=cylinder3;whiteSpace=wrap;html=1;boundedLbl=1;backgroundOutline=1;size=15;fillColor=#bac8d3;strokeColor=#23445d;" vertex="1" parent="1">
          <mxGeometry x="170" y="1400" width="60" height="80" as="geometry" />
        </mxCell>
        <mxCell id="veb8oJTyCX44iU3UPrQK-10" value="Test Execution Phase" style="html=1;dropTarget=0;whiteSpace=wrap;fillColor=#d5e8d4;strokeColor=#82b366;" vertex="1" parent="1">
          <mxGeometry x="420" y="1240" width="180" height="90" as="geometry" />
        </mxCell>
        <mxCell id="veb8oJTyCX44iU3UPrQK-11" value="" style="shape=module;jettyWidth=8;jettyHeight=4;fillColor=#d5e8d4;strokeColor=#82b366;" vertex="1" parent="veb8oJTyCX44iU3UPrQK-10">
          <mxGeometry x="1" width="20" height="20" relative="1" as="geometry">
            <mxPoint x="-27" y="7" as="offset" />
          </mxGeometry>
        </mxCell>
        <mxCell id="veb8oJTyCX44iU3UPrQK-12" value="Test Execution Step" style="html=1;dropTarget=0;whiteSpace=wrap;" vertex="1" parent="1">
          <mxGeometry x="420" y="1400" width="180" height="90" as="geometry" />
        </mxCell>
        <mxCell id="veb8oJTyCX44iU3UPrQK-13" value="" style="shape=module;jettyWidth=8;jettyHeight=4;" vertex="1" parent="veb8oJTyCX44iU3UPrQK-12">
          <mxGeometry x="1" width="20" height="20" relative="1" as="geometry">
            <mxPoint x="-27" y="7" as="offset" />
          </mxGeometry>
        </mxCell>
        <mxCell id="veb8oJTyCX44iU3UPrQK-14" value="" style="endArrow=diamondThin;endFill=0;endSize=24;html=1;rounded=0;" edge="1" parent="1" source="veb8oJTyCX44iU3UPrQK-12" target="veb8oJTyCX44iU3UPrQK-10">
          <mxGeometry width="160" relative="1" as="geometry">
            <mxPoint x="460" y="1360" as="sourcePoint" />
            <mxPoint x="620" y="1360" as="targetPoint" />
          </mxGeometry>
        </mxCell>
        <mxCell id="veb8oJTyCX44iU3UPrQK-15" value="Worker" style="html=1;dropTarget=0;whiteSpace=wrap;" vertex="1" parent="1">
          <mxGeometry x="421" y="1560" width="180" height="90" as="geometry" />
        </mxCell>
        <mxCell id="veb8oJTyCX44iU3UPrQK-16" value="" style="shape=module;jettyWidth=8;jettyHeight=4;" vertex="1" parent="veb8oJTyCX44iU3UPrQK-15">
          <mxGeometry x="1" width="20" height="20" relative="1" as="geometry">
            <mxPoint x="-27" y="7" as="offset" />
          </mxGeometry>
        </mxCell>
        <mxCell id="veb8oJTyCX44iU3UPrQK-17" value="" style="endArrow=diamondThin;endFill=0;endSize=24;html=1;rounded=0;" edge="1" parent="1" source="veb8oJTyCX44iU3UPrQK-15" target="veb8oJTyCX44iU3UPrQK-12">
          <mxGeometry width="160" relative="1" as="geometry">
            <mxPoint x="509.65999999999997" y="1560" as="sourcePoint" />
            <mxPoint x="509.65999999999997" y="1490" as="targetPoint" />
          </mxGeometry>
        </mxCell>
        <mxCell id="veb8oJTyCX44iU3UPrQK-18" value="Result Manager" style="html=1;dropTarget=0;whiteSpace=wrap;" vertex="1" parent="1">
          <mxGeometry x="730" y="1240" width="180" height="90" as="geometry" />
        </mxCell>
        <mxCell id="veb8oJTyCX44iU3UPrQK-19" value="" style="shape=module;jettyWidth=8;jettyHeight=4;" vertex="1" parent="veb8oJTyCX44iU3UPrQK-18">
          <mxGeometry x="1" width="20" height="20" relative="1" as="geometry">
            <mxPoint x="-27" y="7" as="offset" />
          </mxGeometry>
        </mxCell>
        <mxCell id="veb8oJTyCX44iU3UPrQK-20" value="Result storage" style="shape=cylinder3;whiteSpace=wrap;html=1;boundedLbl=1;backgroundOutline=1;size=15;fillColor=#bac8d3;strokeColor=#23445d;" vertex="1" parent="1">
          <mxGeometry x="790" y="1400" width="60" height="80" as="geometry" />
        </mxCell>
        <mxCell id="veb8oJTyCX44iU3UPrQK-21" style="edgeStyle=orthogonalEdgeStyle;rounded=0;orthogonalLoop=1;jettySize=auto;html=1;endArrow=none;startFill=0;" edge="1" parent="1" source="veb8oJTyCX44iU3UPrQK-23" target="veb8oJTyCX44iU3UPrQK-1">
          <mxGeometry relative="1" as="geometry" />
        </mxCell>
        <mxCell id="veb8oJTyCX44iU3UPrQK-22" style="edgeStyle=orthogonalEdgeStyle;rounded=0;orthogonalLoop=1;jettySize=auto;html=1;endArrow=none;startFill=0;" edge="1" parent="1" source="veb8oJTyCX44iU3UPrQK-23" target="veb8oJTyCX44iU3UPrQK-7">
          <mxGeometry relative="1" as="geometry" />
        </mxCell>
        <mxCell id="veb8oJTyCX44iU3UPrQK-23" value="" style="shape=providedRequiredInterface;html=1;verticalLabelPosition=bottom;sketch=0;rotation=-180;" vertex="1" parent="1">
          <mxGeometry x="30" y="1275" width="20" height="20" as="geometry" />
        </mxCell>
        <mxCell id="veb8oJTyCX44iU3UPrQK-24" style="edgeStyle=orthogonalEdgeStyle;rounded=0;orthogonalLoop=1;jettySize=auto;html=1;endArrow=none;startFill=0;" edge="1" parent="1" source="veb8oJTyCX44iU3UPrQK-26" target="veb8oJTyCX44iU3UPrQK-7">
          <mxGeometry relative="1" as="geometry" />
        </mxCell>
        <mxCell id="veb8oJTyCX44iU3UPrQK-25" style="edgeStyle=orthogonalEdgeStyle;rounded=0;orthogonalLoop=1;jettySize=auto;html=1;endArrow=none;startFill=0;" edge="1" parent="1" source="veb8oJTyCX44iU3UPrQK-26" target="veb8oJTyCX44iU3UPrQK-10">
          <mxGeometry relative="1" as="geometry" />
        </mxCell>
        <mxCell id="veb8oJTyCX44iU3UPrQK-26" value="" style="shape=providedRequiredInterface;html=1;verticalLabelPosition=bottom;sketch=0;rotation=0;" vertex="1" parent="1">
          <mxGeometry x="350" y="1275" width="20" height="20" as="geometry" />
        </mxCell>
        <mxCell id="veb8oJTyCX44iU3UPrQK-27" style="edgeStyle=orthogonalEdgeStyle;rounded=0;orthogonalLoop=1;jettySize=auto;html=1;endArrow=none;startFill=0;" edge="1" parent="1" source="veb8oJTyCX44iU3UPrQK-29" target="veb8oJTyCX44iU3UPrQK-18">
          <mxGeometry relative="1" as="geometry" />
        </mxCell>
        <mxCell id="veb8oJTyCX44iU3UPrQK-28" style="edgeStyle=orthogonalEdgeStyle;rounded=0;orthogonalLoop=1;jettySize=auto;html=1;endArrow=none;startFill=0;" edge="1" parent="1" source="veb8oJTyCX44iU3UPrQK-29" target="veb8oJTyCX44iU3UPrQK-10">
          <mxGeometry relative="1" as="geometry" />
        </mxCell>
        <mxCell id="veb8oJTyCX44iU3UPrQK-29" value="" style="shape=providedRequiredInterface;html=1;verticalLabelPosition=bottom;sketch=0;rotation=180;" vertex="1" parent="1">
          <mxGeometry x="660" y="1275" width="20" height="20" as="geometry" />
        </mxCell>
        <mxCell id="veb8oJTyCX44iU3UPrQK-30" style="edgeStyle=orthogonalEdgeStyle;rounded=0;orthogonalLoop=1;jettySize=auto;html=1;endArrow=none;startFill=0;" edge="1" parent="1" source="veb8oJTyCX44iU3UPrQK-32" target="veb8oJTyCX44iU3UPrQK-18">
          <mxGeometry relative="1" as="geometry" />
        </mxCell>
        <mxCell id="veb8oJTyCX44iU3UPrQK-31" style="edgeStyle=orthogonalEdgeStyle;rounded=0;orthogonalLoop=1;jettySize=auto;html=1;endArrow=none;startFill=0;" edge="1" parent="1" source="veb8oJTyCX44iU3UPrQK-32" target="veb8oJTyCX44iU3UPrQK-33">
          <mxGeometry relative="1" as="geometry" />
        </mxCell>
        <mxCell id="veb8oJTyCX44iU3UPrQK-32" value="" style="shape=providedRequiredInterface;html=1;verticalLabelPosition=bottom;sketch=0;rotation=0;" vertex="1" parent="1">
          <mxGeometry x="966" y="1275" width="20" height="20" as="geometry" />
        </mxCell>
        <mxCell id="veb8oJTyCX44iU3UPrQK-33" value="Report Generation Phase" style="html=1;dropTarget=0;whiteSpace=wrap;fillColor=#d5e8d4;strokeColor=#82b366;" vertex="1" parent="1">
          <mxGeometry x="1037" y="1240" width="180" height="90" as="geometry" />
        </mxCell>
        <mxCell id="veb8oJTyCX44iU3UPrQK-34" value="" style="shape=module;jettyWidth=8;jettyHeight=4;fillColor=#d5e8d4;strokeColor=#82b366;" vertex="1" parent="veb8oJTyCX44iU3UPrQK-33">
          <mxGeometry x="1" width="20" height="20" relative="1" as="geometry">
            <mxPoint x="-27" y="7" as="offset" />
          </mxGeometry>
        </mxCell>
        <mxCell id="veb8oJTyCX44iU3UPrQK-35" value="Report Generation&amp;nbsp;Step" style="html=1;dropTarget=0;whiteSpace=wrap;" vertex="1" parent="1">
          <mxGeometry x="1037" y="1400" width="180" height="90" as="geometry" />
        </mxCell>
        <mxCell id="veb8oJTyCX44iU3UPrQK-36" value="" style="shape=module;jettyWidth=8;jettyHeight=4;" vertex="1" parent="veb8oJTyCX44iU3UPrQK-35">
          <mxGeometry x="1" width="20" height="20" relative="1" as="geometry">
            <mxPoint x="-27" y="7" as="offset" />
          </mxGeometry>
        </mxCell>
        <mxCell id="veb8oJTyCX44iU3UPrQK-37" value="" style="endArrow=diamondThin;endFill=0;endSize=24;html=1;rounded=0;" edge="1" parent="1" source="veb8oJTyCX44iU3UPrQK-35" target="veb8oJTyCX44iU3UPrQK-33">
          <mxGeometry width="160" relative="1" as="geometry">
            <mxPoint x="1077" y="1360" as="sourcePoint" />
            <mxPoint x="1237" y="1360" as="targetPoint" />
          </mxGeometry>
        </mxCell>
        <mxCell id="veb8oJTyCX44iU3UPrQK-38" value="" style="endArrow=diamondThin;endFill=0;endSize=24;html=1;rounded=0;" edge="1" parent="1" source="veb8oJTyCX44iU3UPrQK-62" target="veb8oJTyCX44iU3UPrQK-35">
          <mxGeometry width="160" relative="1" as="geometry">
            <mxPoint x="1126.6599999999999" y="1560" as="sourcePoint" />
            <mxPoint x="1126.6599999999999" y="1490" as="targetPoint" />
          </mxGeometry>
        </mxCell>
        <mxCell id="veb8oJTyCX44iU3UPrQK-39" value="Interface" style="text;html=1;align=center;verticalAlign=middle;resizable=0;points=[];autosize=1;strokeColor=none;fillColor=none;" vertex="1" parent="1">
          <mxGeometry x="5" y="1245" width="70" height="30" as="geometry" />
        </mxCell>
        <mxCell id="veb8oJTyCX44iU3UPrQK-40" value="Interface" style="text;html=1;align=center;verticalAlign=middle;resizable=0;points=[];autosize=1;strokeColor=none;fillColor=none;" vertex="1" parent="1">
          <mxGeometry x="325" y="1240" width="70" height="30" as="geometry" />
        </mxCell>
        <mxCell id="veb8oJTyCX44iU3UPrQK-41" value="Interface" style="text;html=1;align=center;verticalAlign=middle;resizable=0;points=[];autosize=1;strokeColor=none;fillColor=none;" vertex="1" parent="1">
          <mxGeometry x="635" y="1240" width="70" height="30" as="geometry" />
        </mxCell>
        <mxCell id="veb8oJTyCX44iU3UPrQK-42" value="Interface" style="text;html=1;align=center;verticalAlign=middle;resizable=0;points=[];autosize=1;strokeColor=none;fillColor=none;" vertex="1" parent="1">
          <mxGeometry x="941" y="1240" width="70" height="30" as="geometry" />
        </mxCell>
        <mxCell id="veb8oJTyCX44iU3UPrQK-43" style="edgeStyle=orthogonalEdgeStyle;rounded=0;orthogonalLoop=1;jettySize=auto;html=1;endArrow=none;startFill=0;" edge="1" parent="1" source="veb8oJTyCX44iU3UPrQK-45" target="veb8oJTyCX44iU3UPrQK-7">
          <mxGeometry relative="1" as="geometry" />
        </mxCell>
        <mxCell id="veb8oJTyCX44iU3UPrQK-44" style="edgeStyle=orthogonalEdgeStyle;rounded=0;orthogonalLoop=1;jettySize=auto;html=1;endArrow=none;startFill=0;" edge="1" parent="1" source="veb8oJTyCX44iU3UPrQK-45" target="veb8oJTyCX44iU3UPrQK-9">
          <mxGeometry relative="1" as="geometry" />
        </mxCell>
        <mxCell id="veb8oJTyCX44iU3UPrQK-45" value="" style="shape=providedRequiredInterface;html=1;verticalLabelPosition=bottom;sketch=0;direction=north;" vertex="1" parent="1">
          <mxGeometry x="190" y="1355" width="20" height="20" as="geometry" />
        </mxCell>
        <mxCell id="veb8oJTyCX44iU3UPrQK-46" value="SQL / (read or write file)" style="text;html=1;align=center;verticalAlign=middle;resizable=0;points=[];autosize=1;strokeColor=none;fillColor=none;" vertex="1" parent="1">
          <mxGeometry x="205" y="1350" width="150" height="30" as="geometry" />
        </mxCell>
        <mxCell id="veb8oJTyCX44iU3UPrQK-47" style="edgeStyle=orthogonalEdgeStyle;rounded=0;orthogonalLoop=1;jettySize=auto;html=1;endArrow=none;startFill=0;" edge="1" parent="1" source="veb8oJTyCX44iU3UPrQK-49" target="veb8oJTyCX44iU3UPrQK-18">
          <mxGeometry relative="1" as="geometry" />
        </mxCell>
        <mxCell id="veb8oJTyCX44iU3UPrQK-48" style="edgeStyle=orthogonalEdgeStyle;rounded=0;orthogonalLoop=1;jettySize=auto;html=1;endArrow=none;startFill=0;" edge="1" parent="1" source="veb8oJTyCX44iU3UPrQK-49" target="veb8oJTyCX44iU3UPrQK-20">
          <mxGeometry relative="1" as="geometry" />
        </mxCell>
        <mxCell id="veb8oJTyCX44iU3UPrQK-49" value="" style="shape=providedRequiredInterface;html=1;verticalLabelPosition=bottom;sketch=0;direction=north;" vertex="1" parent="1">
          <mxGeometry x="810" y="1355" width="20" height="20" as="geometry" />
        </mxCell>
        <mxCell id="veb8oJTyCX44iU3UPrQK-50" value="SQL / (read or write file)" style="text;html=1;align=center;verticalAlign=middle;resizable=0;points=[];autosize=1;strokeColor=none;fillColor=none;" vertex="1" parent="1">
          <mxGeometry x="650" y="1350" width="150" height="30" as="geometry" />
        </mxCell>
        <mxCell id="veb8oJTyCX44iU3UPrQK-51" value="Pipeline" style="shape=umlFrame;whiteSpace=wrap;html=1;pointerEvents=0;recursiveResize=0;container=1;collapsible=0;width=160;" vertex="1" parent="1">
          <mxGeometry x="-310" y="1130" width="1750" height="770" as="geometry" />
        </mxCell>
        <mxCell id="veb8oJTyCX44iU3UPrQK-52" value="Saver" style="html=1;dropTarget=0;whiteSpace=wrap;" vertex="1" parent="veb8oJTyCX44iU3UPrQK-51">
          <mxGeometry x="220" y="430" width="180" height="90" as="geometry" />
        </mxCell>
        <mxCell id="veb8oJTyCX44iU3UPrQK-53" value="" style="shape=module;jettyWidth=8;jettyHeight=4;" vertex="1" parent="veb8oJTyCX44iU3UPrQK-52">
          <mxGeometry x="1" width="20" height="20" relative="1" as="geometry">
            <mxPoint x="-27" y="7" as="offset" />
          </mxGeometry>
        </mxCell>
        <mxCell id="veb8oJTyCX44iU3UPrQK-54" value="Data Handler" style="html=1;dropTarget=0;whiteSpace=wrap;" vertex="1" parent="veb8oJTyCX44iU3UPrQK-51">
          <mxGeometry x="10" y="430" width="180" height="90" as="geometry" />
        </mxCell>
        <mxCell id="veb8oJTyCX44iU3UPrQK-55" value="" style="shape=module;jettyWidth=8;jettyHeight=4;" vertex="1" parent="veb8oJTyCX44iU3UPrQK-54">
          <mxGeometry x="1" width="20" height="20" relative="1" as="geometry">
            <mxPoint x="-27" y="7" as="offset" />
          </mxGeometry>
        </mxCell>
        <mxCell id="veb8oJTyCX44iU3UPrQK-56" value="Saver" style="html=1;dropTarget=0;whiteSpace=wrap;" vertex="1" parent="veb8oJTyCX44iU3UPrQK-51">
          <mxGeometry x="920" y="430" width="180" height="90" as="geometry" />
        </mxCell>
        <mxCell id="veb8oJTyCX44iU3UPrQK-57" value="" style="shape=module;jettyWidth=8;jettyHeight=4;" vertex="1" parent="veb8oJTyCX44iU3UPrQK-56">
          <mxGeometry x="1" width="20" height="20" relative="1" as="geometry">
            <mxPoint x="-27" y="7" as="offset" />
          </mxGeometry>
        </mxCell>
        <mxCell id="veb8oJTyCX44iU3UPrQK-58" value="Loader" style="html=1;dropTarget=0;whiteSpace=wrap;" vertex="1" parent="veb8oJTyCX44iU3UPrQK-51">
          <mxGeometry x="544" y="430" width="180" height="90" as="geometry" />
        </mxCell>
        <mxCell id="veb8oJTyCX44iU3UPrQK-59" value="" style="shape=module;jettyWidth=8;jettyHeight=4;" vertex="1" parent="veb8oJTyCX44iU3UPrQK-58">
          <mxGeometry x="1" width="20" height="20" relative="1" as="geometry">
            <mxPoint x="-27" y="7" as="offset" />
          </mxGeometry>
        </mxCell>
        <mxCell id="veb8oJTyCX44iU3UPrQK-60" value="Report Visualizer" style="html=1;dropTarget=0;whiteSpace=wrap;" vertex="1" parent="veb8oJTyCX44iU3UPrQK-51">
          <mxGeometry x="1554" y="624" width="180" height="90" as="geometry" />
        </mxCell>
        <mxCell id="veb8oJTyCX44iU3UPrQK-61" value="" style="shape=module;jettyWidth=8;jettyHeight=4;" vertex="1" parent="veb8oJTyCX44iU3UPrQK-60">
          <mxGeometry x="1" width="20" height="20" relative="1" as="geometry">
            <mxPoint x="-27" y="7" as="offset" />
          </mxGeometry>
        </mxCell>
        <mxCell id="veb8oJTyCX44iU3UPrQK-62" value="Reporter" style="html=1;dropTarget=0;whiteSpace=wrap;" vertex="1" parent="veb8oJTyCX44iU3UPrQK-51">
          <mxGeometry x="1434" y="430" width="180" height="90" as="geometry" />
        </mxCell>
        <mxCell id="veb8oJTyCX44iU3UPrQK-63" value="" style="shape=module;jettyWidth=8;jettyHeight=4;" vertex="1" parent="veb8oJTyCX44iU3UPrQK-62">
          <mxGeometry x="1" width="20" height="20" relative="1" as="geometry">
            <mxPoint x="-27" y="7" as="offset" />
          </mxGeometry>
        </mxCell>
        <mxCell id="veb8oJTyCX44iU3UPrQK-64" value="Report Builder" style="html=1;dropTarget=0;whiteSpace=wrap;" vertex="1" parent="veb8oJTyCX44iU3UPrQK-51">
          <mxGeometry x="1310" y="623" width="180" height="90" as="geometry" />
        </mxCell>
        <mxCell id="veb8oJTyCX44iU3UPrQK-65" value="" style="shape=module;jettyWidth=8;jettyHeight=4;" vertex="1" parent="veb8oJTyCX44iU3UPrQK-64">
          <mxGeometry x="1" width="20" height="20" relative="1" as="geometry">
            <mxPoint x="-27" y="7" as="offset" />
          </mxGeometry>
        </mxCell>
        <mxCell id="veb8oJTyCX44iU3UPrQK-66" value="" style="endArrow=diamondThin;endFill=0;endSize=24;html=1;rounded=0;" edge="1" parent="veb8oJTyCX44iU3UPrQK-51" source="veb8oJTyCX44iU3UPrQK-60" target="veb8oJTyCX44iU3UPrQK-62">
          <mxGeometry width="160" relative="1" as="geometry">
            <mxPoint x="1378" y="633" as="sourcePoint" />
            <mxPoint x="1427" y="530" as="targetPoint" />
          </mxGeometry>
        </mxCell>
        <mxCell id="veb8oJTyCX44iU3UPrQK-67" value="" style="endArrow=diamondThin;endFill=0;endSize=24;html=1;rounded=0;" edge="1" parent="veb8oJTyCX44iU3UPrQK-51" source="veb8oJTyCX44iU3UPrQK-64" target="veb8oJTyCX44iU3UPrQK-62">
          <mxGeometry width="160" relative="1" as="geometry">
            <mxPoint x="1402.5" y="600" as="sourcePoint" />
            <mxPoint x="1401.5" y="530" as="targetPoint" />
          </mxGeometry>
        </mxCell>
        <mxCell id="veb8oJTyCX44iU3UPrQK-68" value="Loader" style="html=1;dropTarget=0;whiteSpace=wrap;" vertex="1" parent="veb8oJTyCX44iU3UPrQK-51">
          <mxGeometry x="1200" y="430" width="180" height="90" as="geometry" />
        </mxCell>
        <mxCell id="veb8oJTyCX44iU3UPrQK-69" value="" style="shape=module;jettyWidth=8;jettyHeight=4;" vertex="1" parent="veb8oJTyCX44iU3UPrQK-68">
          <mxGeometry x="1" width="20" height="20" relative="1" as="geometry">
            <mxPoint x="-27" y="7" as="offset" />
          </mxGeometry>
        </mxCell>
        <mxCell id="veb8oJTyCX44iU3UPrQK-70" value="Главные компоненты шагов выдают dict[str, data] для записи в бд. Saver берет Данные о нужных полях для сохранения и их названия из Шага и записывает в БД&lt;div&gt;&lt;br&gt;&lt;/div&gt;&lt;div&gt;Loader соответственно по полям из Шага достает данные из БД&lt;/div&gt;" style="shape=note;whiteSpace=wrap;html=1;backgroundOutline=1;fontColor=#000000;darkOpacity=0.05;fillColor=#FFF9B2;strokeColor=none;fillStyle=solid;direction=west;gradientDirection=north;gradientColor=#FFF2A1;shadow=1;size=20;pointerEvents=1;" vertex="1" parent="veb8oJTyCX44iU3UPrQK-51">
          <mxGeometry x="110" y="600" width="290" height="120" as="geometry" />
        </mxCell>
        <mxCell id="veb8oJTyCX44iU3UPrQK-71" value="Точно ли тут агрегация???" style="shape=note;whiteSpace=wrap;html=1;backgroundOutline=1;fontColor=#000000;darkOpacity=0.05;fillColor=#FFF9B2;strokeColor=none;fillStyle=solid;direction=west;gradientDirection=north;gradientColor=#FFF2A1;shadow=1;size=20;pointerEvents=1;" vertex="1" parent="veb8oJTyCX44iU3UPrQK-51">
          <mxGeometry x="680" y="623" width="180" height="70" as="geometry" />
        </mxCell>
        <mxCell id="veb8oJTyCX44iU3UPrQK-72" value="" style="endArrow=diamondThin;endFill=0;endSize=24;html=1;rounded=0;" edge="1" parent="1" source="veb8oJTyCX44iU3UPrQK-52" target="veb8oJTyCX44iU3UPrQK-3">
          <mxGeometry width="160" relative="1" as="geometry">
            <mxPoint x="-160" y="1570" as="sourcePoint" />
            <mxPoint x="-130" y="1500" as="targetPoint" />
          </mxGeometry>
        </mxCell>
        <mxCell id="veb8oJTyCX44iU3UPrQK-73" value="" style="endArrow=diamondThin;endFill=0;endSize=24;html=1;rounded=0;" edge="1" parent="1" source="veb8oJTyCX44iU3UPrQK-58" target="veb8oJTyCX44iU3UPrQK-12">
          <mxGeometry width="160" relative="1" as="geometry">
            <mxPoint x="521" y="1570" as="sourcePoint" />
            <mxPoint x="520" y="1500" as="targetPoint" />
          </mxGeometry>
        </mxCell>
        <mxCell id="veb8oJTyCX44iU3UPrQK-74" value="" style="endArrow=diamondThin;endFill=0;endSize=24;html=1;rounded=0;" edge="1" parent="1" source="veb8oJTyCX44iU3UPrQK-56" target="veb8oJTyCX44iU3UPrQK-12">
          <mxGeometry width="160" relative="1" as="geometry">
            <mxPoint x="386" y="1570" as="sourcePoint" />
            <mxPoint x="468" y="1500" as="targetPoint" />
          </mxGeometry>
        </mxCell>
        <mxCell id="veb8oJTyCX44iU3UPrQK-75" value="" style="endArrow=diamondThin;endFill=0;endSize=24;html=1;rounded=0;" edge="1" parent="1" source="veb8oJTyCX44iU3UPrQK-68" target="veb8oJTyCX44iU3UPrQK-35">
          <mxGeometry width="160" relative="1" as="geometry">
            <mxPoint x="1200" y="1570" as="sourcePoint" />
            <mxPoint x="1161" y="1500" as="targetPoint" />
          </mxGeometry>
        </mxCell>
        <mxCell id="veb8oJTyCX44iU3UPrQK-151" style="edgeStyle=orthogonalEdgeStyle;rounded=0;orthogonalLoop=1;jettySize=auto;html=1;" edge="1" parent="1" source="veb8oJTyCX44iU3UPrQK-152" target="veb8oJTyCX44iU3UPrQK-235">
          <mxGeometry relative="1" as="geometry" />
        </mxCell>
        <mxCell id="veb8oJTyCX44iU3UPrQK-152" value="&lt;i style=&quot;font-weight: 400;&quot;&gt;&amp;lt;&amp;lt;Interface&amp;gt;&amp;gt;&lt;/i&gt;&lt;br style=&quot;font-weight: 400;&quot;&gt;&lt;b&gt;Step&lt;/b&gt;" style="swimlane;fontStyle=1;align=center;verticalAlign=top;childLayout=stackLayout;horizontal=1;startSize=44;horizontalStack=0;resizeParent=1;resizeParentMax=0;resizeLast=0;collapsible=1;marginBottom=0;whiteSpace=wrap;html=1;" vertex="1" parent="1">
          <mxGeometry x="-1560" y="972" width="380" height="312" as="geometry">
            <mxRectangle x="-2160" y="-176" width="100" height="30" as="alternateBounds" />
          </mxGeometry>
        </mxCell>
        <mxCell id="veb8oJTyCX44iU3UPrQK-153" value="+ name: str = &quot;Step&quot;" style="text;strokeColor=none;fillColor=none;align=left;verticalAlign=top;spacingLeft=4;spacingRight=4;overflow=hidden;rotatable=0;points=[[0,0.5],[1,0.5]];portConstraint=eastwest;whiteSpace=wrap;html=1;" vertex="1" parent="veb8oJTyCX44iU3UPrQK-152">
          <mxGeometry y="44" width="380" height="26" as="geometry" />
        </mxCell>
        <mxCell id="veb8oJTyCX44iU3UPrQK-154" value="+&lt;span style=&quot;background-color: transparent; color: light-dark(rgb(0, 0, 0), rgb(255, 255, 255));&quot;&gt;&amp;nbsp;&lt;/span&gt;&lt;span style=&quot;background-color: transparent; color: light-dark(rgb(0, 0, 0), rgb(255, 255, 255));&quot;&gt;input_storage_names: Optional[set[str]] = None&lt;/span&gt;" style="text;strokeColor=none;fillColor=none;align=left;verticalAlign=top;spacingLeft=4;spacingRight=4;overflow=hidden;rotatable=0;points=[[0,0.5],[1,0.5]];portConstraint=eastwest;whiteSpace=wrap;html=1;" vertex="1" parent="veb8oJTyCX44iU3UPrQK-152">
          <mxGeometry y="70" width="380" height="26" as="geometry" />
        </mxCell>
        <mxCell id="veb8oJTyCX44iU3UPrQK-155" value="+&lt;span style=&quot;background-color: transparent; color: light-dark(rgb(0, 0, 0), rgb(255, 255, 255));&quot;&gt;&amp;nbsp;&lt;/span&gt;&lt;span style=&quot;background-color: transparent; color: light-dark(rgb(0, 0, 0), rgb(255, 255, 255));&quot;&gt;output_storage_names: Optional[&lt;/span&gt;set[str] | dict[str: str]] = None" style="text;strokeColor=none;fillColor=none;align=left;verticalAlign=top;spacingLeft=4;spacingRight=4;overflow=hidden;rotatable=0;points=[[0,0.5],[1,0.5]];portConstraint=eastwest;whiteSpace=wrap;html=1;" vertex="1" parent="veb8oJTyCX44iU3UPrQK-152">
          <mxGeometry y="96" width="380" height="26" as="geometry" />
        </mxCell>
        <mxCell id="veb8oJTyCX44iU3UPrQK-156" value="+&lt;span style=&quot;background-color: transparent; color: light-dark(rgb(0, 0, 0), rgb(255, 255, 255));&quot;&gt;&amp;nbsp;input_step&lt;/span&gt;&lt;span style=&quot;background-color: transparent; color: light-dark(rgb(0, 0, 0), rgb(255, 255, 255));&quot;&gt;_names: Optional[&lt;/span&gt;&lt;span style=&quot;background-color: transparent;&quot;&gt;set[str] | dict[str, str]]&amp;nbsp; = None&lt;/span&gt;&lt;div&gt;&lt;br&gt;&lt;/div&gt;" style="text;strokeColor=none;fillColor=none;align=left;verticalAlign=top;spacingLeft=4;spacingRight=4;overflow=hidden;rotatable=0;points=[[0,0.5],[1,0.5]];portConstraint=eastwest;whiteSpace=wrap;html=1;" vertex="1" parent="veb8oJTyCX44iU3UPrQK-152">
          <mxGeometry y="122" width="380" height="26" as="geometry" />
        </mxCell>
        <mxCell id="veb8oJTyCX44iU3UPrQK-157" value="+&lt;span style=&quot;background-color: transparent; color: light-dark(rgb(0, 0, 0), rgb(255, 255, 255));&quot;&gt;&amp;nbsp;output_step&lt;/span&gt;&lt;span style=&quot;background-color: transparent; color: light-dark(rgb(0, 0, 0), rgb(255, 255, 255));&quot;&gt;_names: Optional[&lt;/span&gt;&lt;span style=&quot;background-color: transparent;&quot;&gt;set[str] | dict[str, str]]&amp;nbsp; = None&lt;/span&gt;&lt;div&gt;&lt;br&gt;&lt;/div&gt;" style="text;strokeColor=none;fillColor=none;align=left;verticalAlign=top;spacingLeft=4;spacingRight=4;overflow=hidden;rotatable=0;points=[[0,0.5],[1,0.5]];portConstraint=eastwest;whiteSpace=wrap;html=1;" vertex="1" parent="veb8oJTyCX44iU3UPrQK-152">
          <mxGeometry y="148" width="380" height="26" as="geometry" />
        </mxCell>
        <mxCell id="veb8oJTyCX44iU3UPrQK-158" value="+&lt;span style=&quot;background-color: transparent; color: light-dark(rgb(0, 0, 0), rgb(255, 255, 255));&quot;&gt;&amp;nbsp;&lt;/span&gt;&lt;span style=&quot;background-color: transparent; color: light-dark(rgb(0, 0, 0), rgb(255, 255, 255));&quot;&gt;input_storage: Optional[Storage] = None&lt;/span&gt;" style="text;strokeColor=none;fillColor=none;align=left;verticalAlign=top;spacingLeft=4;spacingRight=4;overflow=hidden;rotatable=0;points=[[0,0.5],[1,0.5]];portConstraint=eastwest;whiteSpace=wrap;html=1;" vertex="1" parent="veb8oJTyCX44iU3UPrQK-152">
          <mxGeometry y="174" width="380" height="26" as="geometry" />
        </mxCell>
        <mxCell id="veb8oJTyCX44iU3UPrQK-159" value="+&lt;span style=&quot;background-color: transparent; color: light-dark(rgb(0, 0, 0), rgb(255, 255, 255));&quot;&gt;&amp;nbsp;output&lt;/span&gt;&lt;span style=&quot;background-color: transparent; color: light-dark(rgb(0, 0, 0), rgb(255, 255, 255));&quot;&gt;_storage:&amp;nbsp;&lt;/span&gt;Optional[Storage] = None" style="text;strokeColor=none;fillColor=none;align=left;verticalAlign=top;spacingLeft=4;spacingRight=4;overflow=hidden;rotatable=0;points=[[0,0.5],[1,0.5]];portConstraint=eastwest;whiteSpace=wrap;html=1;" vertex="1" parent="veb8oJTyCX44iU3UPrQK-152">
          <mxGeometry y="200" width="380" height="26" as="geometry" />
        </mxCell>
        <mxCell id="veb8oJTyCX44iU3UPrQK-160" value="- next: Opt[Step] = None" style="text;strokeColor=none;fillColor=none;align=left;verticalAlign=top;spacingLeft=4;spacingRight=4;overflow=hidden;rotatable=0;points=[[0,0.5],[1,0.5]];portConstraint=eastwest;whiteSpace=wrap;html=1;" vertex="1" parent="veb8oJTyCX44iU3UPrQK-152">
          <mxGeometry y="226" width="380" height="26" as="geometry" />
        </mxCell>
        <mxCell id="veb8oJTyCX44iU3UPrQK-161" value="" style="line;strokeWidth=1;fillColor=none;align=left;verticalAlign=middle;spacingTop=-1;spacingLeft=3;spacingRight=3;rotatable=0;labelPosition=right;points=[];portConstraint=eastwest;strokeColor=inherit;" vertex="1" parent="veb8oJTyCX44iU3UPrQK-152">
          <mxGeometry y="252" width="380" height="8" as="geometry" />
        </mxCell>
        <mxCell id="veb8oJTyCX44iU3UPrQK-162" value="+ __call__(): Optional[dict[str, Any]]" style="text;strokeColor=none;fillColor=none;align=left;verticalAlign=top;spacingLeft=4;spacingRight=4;overflow=hidden;rotatable=0;points=[[0,0.5],[1,0.5]];portConstraint=eastwest;whiteSpace=wrap;html=1;" vertex="1" parent="veb8oJTyCX44iU3UPrQK-152">
          <mxGeometry y="260" width="380" height="26" as="geometry" />
        </mxCell>
        <mxCell id="veb8oJTyCX44iU3UPrQK-163" value="+ set_next(Step, list[str], list[str]): None" style="text;strokeColor=none;fillColor=none;align=left;verticalAlign=top;spacingLeft=4;spacingRight=4;overflow=hidden;rotatable=0;points=[[0,0.5],[1,0.5]];portConstraint=eastwest;whiteSpace=wrap;html=1;" vertex="1" parent="veb8oJTyCX44iU3UPrQK-152">
          <mxGeometry y="286" width="380" height="26" as="geometry" />
        </mxCell>
        <mxCell id="veb8oJTyCX44iU3UPrQK-164" style="edgeStyle=orthogonalEdgeStyle;rounded=0;orthogonalLoop=1;jettySize=auto;html=1;dashed=1;" edge="1" parent="1" source="veb8oJTyCX44iU3UPrQK-165" target="veb8oJTyCX44iU3UPrQK-152">
          <mxGeometry relative="1" as="geometry">
            <mxPoint x="-1570" y="1402" as="sourcePoint" />
            <Array as="points">
              <mxPoint x="-1575" y="1352" />
              <mxPoint x="-1350" y="1352" />
            </Array>
          </mxGeometry>
        </mxCell>
        <mxCell id="veb8oJTyCX44iU3UPrQK-165" value="&lt;b&gt;DataGenerationStep&lt;/b&gt;" style="swimlane;fontStyle=1;align=center;verticalAlign=top;childLayout=stackLayout;horizontal=1;startSize=30;horizontalStack=0;resizeParent=1;resizeParentMax=0;resizeLast=0;collapsible=1;marginBottom=0;whiteSpace=wrap;html=1;" vertex="1" parent="1">
          <mxGeometry x="-1740" y="1380" width="190" height="116" as="geometry">
            <mxRectangle x="-2160" y="-176" width="100" height="30" as="alternateBounds" />
          </mxGeometry>
        </mxCell>
        <mxCell id="veb8oJTyCX44iU3UPrQK-166" value="- data_handler: DataHandler" style="text;strokeColor=none;fillColor=none;align=left;verticalAlign=top;spacingLeft=4;spacingRight=4;overflow=hidden;rotatable=0;points=[[0,0.5],[1,0.5]];portConstraint=eastwest;whiteSpace=wrap;html=1;" vertex="1" parent="veb8oJTyCX44iU3UPrQK-165">
          <mxGeometry y="30" width="190" height="26" as="geometry" />
        </mxCell>
        <mxCell id="veb8oJTyCX44iU3UPrQK-167" value="- config: Optional[Path] = None" style="text;strokeColor=none;fillColor=none;align=left;verticalAlign=top;spacingLeft=4;spacingRight=4;overflow=hidden;rotatable=0;points=[[0,0.5],[1,0.5]];portConstraint=eastwest;whiteSpace=wrap;html=1;" vertex="1" parent="veb8oJTyCX44iU3UPrQK-165">
          <mxGeometry y="56" width="190" height="26" as="geometry" />
        </mxCell>
        <mxCell id="veb8oJTyCX44iU3UPrQK-168" value="- saver: Optional[Saver] = None" style="text;strokeColor=none;fillColor=none;align=left;verticalAlign=top;spacingLeft=4;spacingRight=4;overflow=hidden;rotatable=0;points=[[0,0.5],[1,0.5]];portConstraint=eastwest;whiteSpace=wrap;html=1;" vertex="1" parent="veb8oJTyCX44iU3UPrQK-165">
          <mxGeometry y="82" width="190" height="26" as="geometry" />
        </mxCell>
        <mxCell id="veb8oJTyCX44iU3UPrQK-169" value="" style="line;strokeWidth=1;fillColor=none;align=left;verticalAlign=middle;spacingTop=-1;spacingLeft=3;spacingRight=3;rotatable=0;labelPosition=right;points=[];portConstraint=eastwest;strokeColor=inherit;" vertex="1" parent="veb8oJTyCX44iU3UPrQK-165">
          <mxGeometry y="108" width="190" height="8" as="geometry" />
        </mxCell>
        <mxCell id="veb8oJTyCX44iU3UPrQK-170" style="edgeStyle=orthogonalEdgeStyle;rounded=0;orthogonalLoop=1;jettySize=auto;html=1;" edge="1" parent="1" source="veb8oJTyCX44iU3UPrQK-172" target="veb8oJTyCX44iU3UPrQK-243">
          <mxGeometry relative="1" as="geometry" />
        </mxCell>
        <mxCell id="veb8oJTyCX44iU3UPrQK-171" style="edgeStyle=orthogonalEdgeStyle;rounded=0;orthogonalLoop=1;jettySize=auto;html=1;" edge="1" parent="1" source="veb8oJTyCX44iU3UPrQK-172" target="veb8oJTyCX44iU3UPrQK-241">
          <mxGeometry relative="1" as="geometry" />
        </mxCell>
        <mxCell id="veb8oJTyCX44iU3UPrQK-172" value="&lt;i style=&quot;font-weight: 400;&quot;&gt;&amp;lt;&amp;lt;Interface&amp;gt;&amp;gt;&lt;/i&gt;&lt;br style=&quot;font-weight: 400;&quot;&gt;&lt;b&gt;Saver&lt;/b&gt;" style="swimlane;fontStyle=1;align=center;verticalAlign=top;childLayout=stackLayout;horizontal=1;startSize=44;horizontalStack=0;resizeParent=1;resizeParentMax=0;resizeLast=0;collapsible=1;marginBottom=0;whiteSpace=wrap;html=1;" vertex="1" parent="1">
          <mxGeometry x="-2200" y="789" width="240" height="156" as="geometry">
            <mxRectangle x="-2160" y="-176" width="100" height="30" as="alternateBounds" />
          </mxGeometry>
        </mxCell>
        <mxCell id="veb8oJTyCX44iU3UPrQK-173" value="+ storage: Storage" style="text;strokeColor=none;fillColor=none;align=left;verticalAlign=top;spacingLeft=4;spacingRight=4;overflow=hidden;rotatable=0;points=[[0,0.5],[1,0.5]];portConstraint=eastwest;whiteSpace=wrap;html=1;" vertex="1" parent="veb8oJTyCX44iU3UPrQK-172">
          <mxGeometry y="44" width="240" height="26" as="geometry" />
        </mxCell>
        <mxCell id="veb8oJTyCX44iU3UPrQK-174" value="+ data: dict[str, Any] = {}" style="text;strokeColor=none;fillColor=none;align=left;verticalAlign=top;spacingLeft=4;spacingRight=4;overflow=hidden;rotatable=0;points=[[0,0.5],[1,0.5]];portConstraint=eastwest;whiteSpace=wrap;html=1;" vertex="1" parent="veb8oJTyCX44iU3UPrQK-172">
          <mxGeometry y="70" width="240" height="26" as="geometry" />
        </mxCell>
        <mxCell id="veb8oJTyCX44iU3UPrQK-175" value="+ data_to_save: set[str] | dict[str, str] = {}" style="text;strokeColor=none;fillColor=none;align=left;verticalAlign=top;spacingLeft=4;spacingRight=4;overflow=hidden;rotatable=0;points=[[0,0.5],[1,0.5]];portConstraint=eastwest;whiteSpace=wrap;html=1;" vertex="1" parent="veb8oJTyCX44iU3UPrQK-172">
          <mxGeometry y="96" width="240" height="26" as="geometry" />
        </mxCell>
        <mxCell id="veb8oJTyCX44iU3UPrQK-176" value="" style="line;strokeWidth=1;fillColor=none;align=left;verticalAlign=middle;spacingTop=-1;spacingLeft=3;spacingRight=3;rotatable=0;labelPosition=right;points=[];portConstraint=eastwest;strokeColor=inherit;" vertex="1" parent="veb8oJTyCX44iU3UPrQK-172">
          <mxGeometry y="122" width="240" height="8" as="geometry" />
        </mxCell>
        <mxCell id="veb8oJTyCX44iU3UPrQK-177" value="+ __call__(): None" style="text;strokeColor=none;fillColor=none;align=left;verticalAlign=top;spacingLeft=4;spacingRight=4;overflow=hidden;rotatable=0;points=[[0,0.5],[1,0.5]];portConstraint=eastwest;whiteSpace=wrap;html=1;" vertex="1" parent="veb8oJTyCX44iU3UPrQK-172">
          <mxGeometry y="130" width="240" height="26" as="geometry" />
        </mxCell>
        <mxCell id="veb8oJTyCX44iU3UPrQK-178" style="edgeStyle=orthogonalEdgeStyle;rounded=0;orthogonalLoop=1;jettySize=auto;html=1;" edge="1" parent="1" source="veb8oJTyCX44iU3UPrQK-180" target="veb8oJTyCX44iU3UPrQK-242">
          <mxGeometry relative="1" as="geometry" />
        </mxCell>
        <mxCell id="veb8oJTyCX44iU3UPrQK-179" style="edgeStyle=orthogonalEdgeStyle;rounded=0;orthogonalLoop=1;jettySize=auto;html=1;" edge="1" parent="1" source="veb8oJTyCX44iU3UPrQK-180" target="veb8oJTyCX44iU3UPrQK-244">
          <mxGeometry relative="1" as="geometry" />
        </mxCell>
        <mxCell id="veb8oJTyCX44iU3UPrQK-180" value="&lt;i style=&quot;font-weight: 400;&quot;&gt;&amp;lt;&amp;lt;Interface&amp;gt;&amp;gt;&lt;/i&gt;&lt;br style=&quot;font-weight: 400;&quot;&gt;&lt;b&gt;Loader&lt;/b&gt;" style="swimlane;fontStyle=1;align=center;verticalAlign=top;childLayout=stackLayout;horizontal=1;startSize=44;horizontalStack=0;resizeParent=1;resizeParentMax=0;resizeLast=0;collapsible=1;marginBottom=0;whiteSpace=wrap;html=1;" vertex="1" parent="1">
          <mxGeometry x="-2430" y="992" width="240" height="130" as="geometry">
            <mxRectangle x="-2160" y="-176" width="100" height="30" as="alternateBounds" />
          </mxGeometry>
        </mxCell>
        <mxCell id="veb8oJTyCX44iU3UPrQK-181" value="+ storage: Storage" style="text;strokeColor=none;fillColor=none;align=left;verticalAlign=top;spacingLeft=4;spacingRight=4;overflow=hidden;rotatable=0;points=[[0,0.5],[1,0.5]];portConstraint=eastwest;whiteSpace=wrap;html=1;" vertex="1" parent="veb8oJTyCX44iU3UPrQK-180">
          <mxGeometry y="44" width="240" height="26" as="geometry" />
        </mxCell>
        <mxCell id="veb8oJTyCX44iU3UPrQK-182" value="+ data_to_load: set[str] | dict[str, str] = {}" style="text;strokeColor=none;fillColor=none;align=left;verticalAlign=top;spacingLeft=4;spacingRight=4;overflow=hidden;rotatable=0;points=[[0,0.5],[1,0.5]];portConstraint=eastwest;whiteSpace=wrap;html=1;" vertex="1" parent="veb8oJTyCX44iU3UPrQK-180">
          <mxGeometry y="70" width="240" height="26" as="geometry" />
        </mxCell>
        <mxCell id="veb8oJTyCX44iU3UPrQK-183" value="" style="line;strokeWidth=1;fillColor=none;align=left;verticalAlign=middle;spacingTop=-1;spacingLeft=3;spacingRight=3;rotatable=0;labelPosition=right;points=[];portConstraint=eastwest;strokeColor=inherit;" vertex="1" parent="veb8oJTyCX44iU3UPrQK-180">
          <mxGeometry y="96" width="240" height="8" as="geometry" />
        </mxCell>
        <mxCell id="veb8oJTyCX44iU3UPrQK-184" value="+ __call__(): dict[str, Any]" style="text;strokeColor=none;fillColor=none;align=left;verticalAlign=top;spacingLeft=4;spacingRight=4;overflow=hidden;rotatable=0;points=[[0,0.5],[1,0.5]];portConstraint=eastwest;whiteSpace=wrap;html=1;" vertex="1" parent="veb8oJTyCX44iU3UPrQK-180">
          <mxGeometry y="104" width="240" height="26" as="geometry" />
        </mxCell>
        <mxCell id="veb8oJTyCX44iU3UPrQK-185" style="edgeStyle=orthogonalEdgeStyle;rounded=0;orthogonalLoop=1;jettySize=auto;html=1;dashed=1;" edge="1" parent="1" source="veb8oJTyCX44iU3UPrQK-196" target="veb8oJTyCX44iU3UPrQK-186">
          <mxGeometry relative="1" as="geometry">
            <mxPoint x="-1622.4848484848485" y="2309" as="sourcePoint" />
            <Array as="points">
              <mxPoint x="-1655" y="1919" />
              <mxPoint x="-1350" y="1919" />
            </Array>
          </mxGeometry>
        </mxCell>
        <mxCell id="veb8oJTyCX44iU3UPrQK-186" value="&lt;i style=&quot;font-weight: 400;&quot;&gt;&amp;lt;&amp;lt;Interface&amp;gt;&amp;gt;&lt;/i&gt;&lt;br style=&quot;font-weight: 400;&quot;&gt;&lt;b&gt;StepProcessor&lt;/b&gt;" style="swimlane;fontStyle=1;align=center;verticalAlign=top;childLayout=stackLayout;horizontal=1;startSize=44;horizontalStack=0;resizeParent=1;resizeParentMax=0;resizeLast=0;collapsible=1;marginBottom=0;whiteSpace=wrap;html=1;" vertex="1" parent="1">
          <mxGeometry x="-1520" y="1979" width="340" height="234" as="geometry">
            <mxRectangle x="-2160" y="-176" width="100" height="30" as="alternateBounds" />
          </mxGeometry>
        </mxCell>
        <mxCell id="veb8oJTyCX44iU3UPrQK-187" value="+&lt;span style=&quot;background-color: transparent; color: light-dark(rgb(0, 0, 0), rgb(255, 255, 255));&quot;&gt;&amp;nbsp;&lt;/span&gt;&lt;span style=&quot;background-color: transparent; color: light-dark(rgb(0, 0, 0), rgb(255, 255, 255));&quot;&gt;input_storage_names: set[str] = {}&lt;/span&gt;" style="text;strokeColor=none;fillColor=none;align=left;verticalAlign=top;spacingLeft=4;spacingRight=4;overflow=hidden;rotatable=0;points=[[0,0.5],[1,0.5]];portConstraint=eastwest;whiteSpace=wrap;html=1;" vertex="1" parent="veb8oJTyCX44iU3UPrQK-186">
          <mxGeometry y="44" width="340" height="26" as="geometry" />
        </mxCell>
        <mxCell id="veb8oJTyCX44iU3UPrQK-188" value="+&lt;span style=&quot;background-color: transparent; color: light-dark(rgb(0, 0, 0), rgb(255, 255, 255));&quot;&gt;&amp;nbsp;output_step&lt;/span&gt;&lt;span style=&quot;background-color: transparent; color: light-dark(rgb(0, 0, 0), rgb(255, 255, 255));&quot;&gt;_names:&amp;nbsp;&lt;/span&gt;&lt;span style=&quot;background-color: transparent;&quot;&gt;set[str]&amp;nbsp; = {}&lt;/span&gt;" style="text;strokeColor=none;fillColor=none;align=left;verticalAlign=top;spacingLeft=4;spacingRight=4;overflow=hidden;rotatable=0;points=[[0,0.5],[1,0.5]];portConstraint=eastwest;whiteSpace=wrap;html=1;" vertex="1" parent="veb8oJTyCX44iU3UPrQK-186">
          <mxGeometry y="70" width="340" height="26" as="geometry" />
        </mxCell>
        <mxCell id="veb8oJTyCX44iU3UPrQK-189" value="+&lt;span style=&quot;background-color: transparent; color: light-dark(rgb(0, 0, 0), rgb(255, 255, 255));&quot;&gt;&amp;nbsp;input_step&lt;/span&gt;&lt;span style=&quot;background-color: transparent; color: light-dark(rgb(0, 0, 0), rgb(255, 255, 255));&quot;&gt;_names:&amp;nbsp;&lt;/span&gt;&lt;span style=&quot;background-color: transparent;&quot;&gt;set[str] = {}&lt;/span&gt;&lt;div&gt;&lt;br&gt;&lt;/div&gt;" style="text;strokeColor=none;fillColor=none;align=left;verticalAlign=top;spacingLeft=4;spacingRight=4;overflow=hidden;rotatable=0;points=[[0,0.5],[1,0.5]];portConstraint=eastwest;whiteSpace=wrap;html=1;" vertex="1" parent="veb8oJTyCX44iU3UPrQK-186">
          <mxGeometry y="96" width="340" height="26" as="geometry" />
        </mxCell>
        <mxCell id="veb8oJTyCX44iU3UPrQK-190" value="+&lt;span style=&quot;background-color: transparent; color: light-dark(rgb(0, 0, 0), rgb(255, 255, 255));&quot;&gt;&amp;nbsp;&lt;/span&gt;&lt;span style=&quot;background-color: transparent; color: light-dark(rgb(0, 0, 0), rgb(255, 255, 255));&quot;&gt;output_storage_names:&amp;nbsp;&lt;/span&gt;set[str] = {}" style="text;strokeColor=none;fillColor=none;align=left;verticalAlign=top;spacingLeft=4;spacingRight=4;overflow=hidden;rotatable=0;points=[[0,0.5],[1,0.5]];portConstraint=eastwest;whiteSpace=wrap;html=1;" vertex="1" parent="veb8oJTyCX44iU3UPrQK-186">
          <mxGeometry y="122" width="340" height="26" as="geometry" />
        </mxCell>
        <mxCell id="veb8oJTyCX44iU3UPrQK-191" value="+ previouse_step_data: dict[str, Any] = {}" style="text;strokeColor=none;fillColor=none;align=left;verticalAlign=top;spacingLeft=4;spacingRight=4;overflow=hidden;rotatable=0;points=[[0,0.5],[1,0.5]];portConstraint=eastwest;whiteSpace=wrap;html=1;" vertex="1" parent="veb8oJTyCX44iU3UPrQK-186">
          <mxGeometry y="148" width="340" height="26" as="geometry" />
        </mxCell>
        <mxCell id="veb8oJTyCX44iU3UPrQK-192" value="- config: Optional[Path] = None" style="text;strokeColor=none;fillColor=none;align=left;verticalAlign=top;spacingLeft=4;spacingRight=4;overflow=hidden;rotatable=0;points=[[0,0.5],[1,0.5]];portConstraint=eastwest;whiteSpace=wrap;html=1;" vertex="1" parent="veb8oJTyCX44iU3UPrQK-186">
          <mxGeometry y="174" width="340" height="26" as="geometry" />
        </mxCell>
        <mxCell id="veb8oJTyCX44iU3UPrQK-193" value="" style="line;strokeWidth=1;fillColor=none;align=left;verticalAlign=middle;spacingTop=-1;spacingLeft=3;spacingRight=3;rotatable=0;labelPosition=right;points=[];portConstraint=eastwest;strokeColor=inherit;" vertex="1" parent="veb8oJTyCX44iU3UPrQK-186">
          <mxGeometry y="200" width="340" height="8" as="geometry" />
        </mxCell>
        <mxCell id="veb8oJTyCX44iU3UPrQK-194" value="+ validate_output(dict[str, Any]): bool" style="text;strokeColor=none;fillColor=none;align=left;verticalAlign=top;spacingLeft=4;spacingRight=4;overflow=hidden;rotatable=0;points=[[0,0.5],[1,0.5]];portConstraint=eastwest;whiteSpace=wrap;html=1;" vertex="1" parent="veb8oJTyCX44iU3UPrQK-186">
          <mxGeometry y="208" width="340" height="26" as="geometry" />
        </mxCell>
        <mxCell id="veb8oJTyCX44iU3UPrQK-195" style="edgeStyle=orthogonalEdgeStyle;rounded=0;orthogonalLoop=1;jettySize=auto;html=1;" edge="1" parent="1" source="veb8oJTyCX44iU3UPrQK-196" target="veb8oJTyCX44iU3UPrQK-166">
          <mxGeometry relative="1" as="geometry">
            <Array as="points">
              <mxPoint x="-1760" y="1423" />
            </Array>
          </mxGeometry>
        </mxCell>
        <mxCell id="veb8oJTyCX44iU3UPrQK-196" value="&lt;i style=&quot;font-weight: 400;&quot;&gt;&amp;lt;&amp;lt;Interface&amp;gt;&amp;gt;&lt;/i&gt;&lt;br style=&quot;font-weight: 400;&quot;&gt;&lt;b&gt;DataHandler&lt;/b&gt;" style="swimlane;fontStyle=1;align=center;verticalAlign=top;childLayout=stackLayout;horizontal=1;startSize=44;horizontalStack=0;resizeParent=1;resizeParentMax=0;resizeLast=0;collapsible=1;marginBottom=0;whiteSpace=wrap;html=1;" vertex="1" parent="1">
          <mxGeometry x="-1790" y="1609" width="270" height="78" as="geometry">
            <mxRectangle x="-2160" y="-176" width="100" height="30" as="alternateBounds" />
          </mxGeometry>
        </mxCell>
        <mxCell id="veb8oJTyCX44iU3UPrQK-197" value="" style="line;strokeWidth=1;fillColor=none;align=left;verticalAlign=middle;spacingTop=-1;spacingLeft=3;spacingRight=3;rotatable=0;labelPosition=right;points=[];portConstraint=eastwest;strokeColor=inherit;" vertex="1" parent="veb8oJTyCX44iU3UPrQK-196">
          <mxGeometry y="44" width="270" height="8" as="geometry" />
        </mxCell>
        <mxCell id="veb8oJTyCX44iU3UPrQK-198" value="+ get_data(**dict[str, Any]): Iterator[dict[str, Any]]" style="text;strokeColor=none;fillColor=none;align=left;verticalAlign=top;spacingLeft=4;spacingRight=4;overflow=hidden;rotatable=0;points=[[0,0.5],[1,0.5]];portConstraint=eastwest;whiteSpace=wrap;html=1;" vertex="1" parent="veb8oJTyCX44iU3UPrQK-196">
          <mxGeometry y="52" width="270" height="26" as="geometry" />
        </mxCell>
        <mxCell id="veb8oJTyCX44iU3UPrQK-199" style="edgeStyle=orthogonalEdgeStyle;rounded=0;orthogonalLoop=1;jettySize=auto;html=1;" edge="1" parent="1" source="veb8oJTyCX44iU3UPrQK-200" target="veb8oJTyCX44iU3UPrQK-206">
          <mxGeometry relative="1" as="geometry">
            <Array as="points">
              <mxPoint x="-1240" y="1463" />
            </Array>
          </mxGeometry>
        </mxCell>
        <mxCell id="veb8oJTyCX44iU3UPrQK-200" value="&lt;i style=&quot;font-weight: 400;&quot;&gt;&amp;lt;&amp;lt;Interface&amp;gt;&amp;gt;&lt;/i&gt;&lt;br style=&quot;font-weight: 400;&quot;&gt;&lt;b&gt;Worker&lt;/b&gt;" style="swimlane;fontStyle=1;align=center;verticalAlign=top;childLayout=stackLayout;horizontal=1;startSize=44;horizontalStack=0;resizeParent=1;resizeParentMax=0;resizeLast=0;collapsible=1;marginBottom=0;whiteSpace=wrap;html=1;" vertex="1" parent="1">
          <mxGeometry x="-1482.5" y="1609" width="265" height="78" as="geometry">
            <mxRectangle x="-2160" y="-176" width="100" height="30" as="alternateBounds" />
          </mxGeometry>
        </mxCell>
        <mxCell id="veb8oJTyCX44iU3UPrQK-201" value="" style="line;strokeWidth=1;fillColor=none;align=left;verticalAlign=middle;spacingTop=-1;spacingLeft=3;spacingRight=3;rotatable=0;labelPosition=right;points=[];portConstraint=eastwest;strokeColor=inherit;" vertex="1" parent="veb8oJTyCX44iU3UPrQK-200">
          <mxGeometry y="44" width="265" height="8" as="geometry" />
        </mxCell>
        <mxCell id="veb8oJTyCX44iU3UPrQK-202" value="+ run(**dict[str, Any]): Iterator[dict[str, Any]]" style="text;strokeColor=none;fillColor=none;align=left;verticalAlign=top;spacingLeft=4;spacingRight=4;overflow=hidden;rotatable=0;points=[[0,0.5],[1,0.5]];portConstraint=eastwest;whiteSpace=wrap;html=1;" vertex="1" parent="veb8oJTyCX44iU3UPrQK-200">
          <mxGeometry y="52" width="265" height="26" as="geometry" />
        </mxCell>
        <mxCell id="veb8oJTyCX44iU3UPrQK-203" style="edgeStyle=orthogonalEdgeStyle;rounded=0;orthogonalLoop=1;jettySize=auto;html=1;dashed=1;" edge="1" parent="1" source="veb8oJTyCX44iU3UPrQK-200" target="veb8oJTyCX44iU3UPrQK-186">
          <mxGeometry relative="1" as="geometry" />
        </mxCell>
        <mxCell id="veb8oJTyCX44iU3UPrQK-204" style="edgeStyle=orthogonalEdgeStyle;rounded=0;orthogonalLoop=1;jettySize=auto;html=1;dashed=1;" edge="1" parent="1" source="veb8oJTyCX44iU3UPrQK-205" target="veb8oJTyCX44iU3UPrQK-152">
          <mxGeometry relative="1" as="geometry">
            <Array as="points">
              <mxPoint x="-1350" y="1312" />
              <mxPoint x="-1350" y="1312" />
            </Array>
          </mxGeometry>
        </mxCell>
        <mxCell id="veb8oJTyCX44iU3UPrQK-205" value="TestExecutionStep" style="swimlane;fontStyle=1;align=center;verticalAlign=top;childLayout=stackLayout;horizontal=1;startSize=30;horizontalStack=0;resizeParent=1;resizeParentMax=0;resizeLast=0;collapsible=1;marginBottom=0;whiteSpace=wrap;html=1;" vertex="1" parent="1">
          <mxGeometry x="-1450" y="1420" width="190" height="142" as="geometry">
            <mxRectangle x="-2160" y="-176" width="100" height="30" as="alternateBounds" />
          </mxGeometry>
        </mxCell>
        <mxCell id="veb8oJTyCX44iU3UPrQK-206" value="- worker: Worker" style="text;strokeColor=none;fillColor=none;align=left;verticalAlign=top;spacingLeft=4;spacingRight=4;overflow=hidden;rotatable=0;points=[[0,0.5],[1,0.5]];portConstraint=eastwest;whiteSpace=wrap;html=1;" vertex="1" parent="veb8oJTyCX44iU3UPrQK-205">
          <mxGeometry y="30" width="190" height="26" as="geometry" />
        </mxCell>
        <mxCell id="veb8oJTyCX44iU3UPrQK-207" value="- config: Optional[Path] = None" style="text;strokeColor=none;fillColor=none;align=left;verticalAlign=top;spacingLeft=4;spacingRight=4;overflow=hidden;rotatable=0;points=[[0,0.5],[1,0.5]];portConstraint=eastwest;whiteSpace=wrap;html=1;" vertex="1" parent="veb8oJTyCX44iU3UPrQK-205">
          <mxGeometry y="56" width="190" height="26" as="geometry" />
        </mxCell>
        <mxCell id="veb8oJTyCX44iU3UPrQK-208" value="- loader: Optional[Loader] = None" style="text;strokeColor=none;fillColor=none;align=left;verticalAlign=top;spacingLeft=4;spacingRight=4;overflow=hidden;rotatable=0;points=[[0,0.5],[1,0.5]];portConstraint=eastwest;whiteSpace=wrap;html=1;" vertex="1" parent="veb8oJTyCX44iU3UPrQK-205">
          <mxGeometry y="82" width="190" height="26" as="geometry" />
        </mxCell>
        <mxCell id="veb8oJTyCX44iU3UPrQK-209" value="- saver: Optional[Saver] = None" style="text;strokeColor=none;fillColor=none;align=left;verticalAlign=top;spacingLeft=4;spacingRight=4;overflow=hidden;rotatable=0;points=[[0,0.5],[1,0.5]];portConstraint=eastwest;whiteSpace=wrap;html=1;" vertex="1" parent="veb8oJTyCX44iU3UPrQK-205">
          <mxGeometry y="108" width="190" height="26" as="geometry" />
        </mxCell>
        <mxCell id="veb8oJTyCX44iU3UPrQK-210" value="" style="line;strokeWidth=1;fillColor=none;align=left;verticalAlign=middle;spacingTop=-1;spacingLeft=3;spacingRight=3;rotatable=0;labelPosition=right;points=[];portConstraint=eastwest;strokeColor=inherit;" vertex="1" parent="veb8oJTyCX44iU3UPrQK-205">
          <mxGeometry y="134" width="190" height="8" as="geometry" />
        </mxCell>
        <mxCell id="veb8oJTyCX44iU3UPrQK-211" value="" style="edgeStyle=orthogonalEdgeStyle;rounded=0;orthogonalLoop=1;jettySize=auto;html=1;" edge="1" parent="1" source="veb8oJTyCX44iU3UPrQK-212" target="veb8oJTyCX44iU3UPrQK-223">
          <mxGeometry relative="1" as="geometry" />
        </mxCell>
        <mxCell id="veb8oJTyCX44iU3UPrQK-212" value="&lt;i style=&quot;font-weight: 400;&quot;&gt;&amp;lt;&amp;lt;Interface&amp;gt;&amp;gt;&lt;/i&gt;&lt;br style=&quot;font-weight: 400;&quot;&gt;ReportBuilder" style="swimlane;fontStyle=1;align=center;verticalAlign=top;childLayout=stackLayout;horizontal=1;startSize=44;horizontalStack=0;resizeParent=1;resizeParentMax=0;resizeLast=0;collapsible=1;marginBottom=0;whiteSpace=wrap;html=1;" vertex="1" parent="1">
          <mxGeometry x="-952.5" y="1781" width="265" height="78" as="geometry">
            <mxRectangle x="-2160" y="-176" width="100" height="30" as="alternateBounds" />
          </mxGeometry>
        </mxCell>
        <mxCell id="veb8oJTyCX44iU3UPrQK-213" value="" style="line;strokeWidth=1;fillColor=none;align=left;verticalAlign=middle;spacingTop=-1;spacingLeft=3;spacingRight=3;rotatable=0;labelPosition=right;points=[];portConstraint=eastwest;strokeColor=inherit;" vertex="1" parent="veb8oJTyCX44iU3UPrQK-212">
          <mxGeometry y="44" width="265" height="8" as="geometry" />
        </mxCell>
        <mxCell id="veb8oJTyCX44iU3UPrQK-214" value="+ build(**dict[str, Any]): None" style="text;strokeColor=none;fillColor=none;align=left;verticalAlign=top;spacingLeft=4;spacingRight=4;overflow=hidden;rotatable=0;points=[[0,0.5],[1,0.5]];portConstraint=eastwest;whiteSpace=wrap;html=1;" vertex="1" parent="veb8oJTyCX44iU3UPrQK-212">
          <mxGeometry y="52" width="265" height="26" as="geometry" />
        </mxCell>
        <mxCell id="veb8oJTyCX44iU3UPrQK-215" style="edgeStyle=orthogonalEdgeStyle;rounded=0;orthogonalLoop=1;jettySize=auto;html=1;" edge="1" parent="1" source="veb8oJTyCX44iU3UPrQK-216" target="veb8oJTyCX44iU3UPrQK-224">
          <mxGeometry relative="1" as="geometry" />
        </mxCell>
        <mxCell id="veb8oJTyCX44iU3UPrQK-216" value="&lt;i style=&quot;font-weight: 400;&quot;&gt;&amp;lt;&amp;lt;Interface&amp;gt;&amp;gt;&lt;/i&gt;&lt;br style=&quot;font-weight: 400;&quot;&gt;ReportVisualizer" style="swimlane;fontStyle=1;align=center;verticalAlign=top;childLayout=stackLayout;horizontal=1;startSize=44;horizontalStack=0;resizeParent=1;resizeParentMax=0;resizeLast=0;collapsible=1;marginBottom=0;whiteSpace=wrap;html=1;" vertex="1" parent="1">
          <mxGeometry x="-1310" y="1781" width="265" height="104" as="geometry">
            <mxRectangle x="-2160" y="-176" width="100" height="30" as="alternateBounds" />
          </mxGeometry>
        </mxCell>
        <mxCell id="veb8oJTyCX44iU3UPrQK-217" value="+ path_to_save: Path" style="text;strokeColor=none;fillColor=none;align=left;verticalAlign=top;spacingLeft=4;spacingRight=4;overflow=hidden;rotatable=0;points=[[0,0.5],[1,0.5]];portConstraint=eastwest;whiteSpace=wrap;html=1;" vertex="1" parent="veb8oJTyCX44iU3UPrQK-216">
          <mxGeometry y="44" width="265" height="26" as="geometry" />
        </mxCell>
        <mxCell id="veb8oJTyCX44iU3UPrQK-218" value="" style="line;strokeWidth=1;fillColor=none;align=left;verticalAlign=middle;spacingTop=-1;spacingLeft=3;spacingRight=3;rotatable=0;labelPosition=right;points=[];portConstraint=eastwest;strokeColor=inherit;" vertex="1" parent="veb8oJTyCX44iU3UPrQK-216">
          <mxGeometry y="70" width="265" height="8" as="geometry" />
        </mxCell>
        <mxCell id="veb8oJTyCX44iU3UPrQK-219" value="+ draw(ReportBuilder): None" style="text;strokeColor=none;fillColor=none;align=left;verticalAlign=top;spacingLeft=4;spacingRight=4;overflow=hidden;rotatable=0;points=[[0,0.5],[1,0.5]];portConstraint=eastwest;whiteSpace=wrap;html=1;" vertex="1" parent="veb8oJTyCX44iU3UPrQK-216">
          <mxGeometry y="78" width="265" height="26" as="geometry" />
        </mxCell>
        <mxCell id="veb8oJTyCX44iU3UPrQK-220" style="edgeStyle=orthogonalEdgeStyle;rounded=0;orthogonalLoop=1;jettySize=auto;html=1;dashed=1;" edge="1" parent="1" source="veb8oJTyCX44iU3UPrQK-222" target="veb8oJTyCX44iU3UPrQK-186">
          <mxGeometry relative="1" as="geometry">
            <Array as="points">
              <mxPoint x="-1010" y="1919" />
              <mxPoint x="-1350" y="1919" />
            </Array>
          </mxGeometry>
        </mxCell>
        <mxCell id="veb8oJTyCX44iU3UPrQK-221" style="edgeStyle=orthogonalEdgeStyle;rounded=0;orthogonalLoop=1;jettySize=auto;html=1;" edge="1" parent="1" source="veb8oJTyCX44iU3UPrQK-222" target="veb8oJTyCX44iU3UPrQK-230">
          <mxGeometry relative="1" as="geometry">
            <Array as="points">
              <mxPoint x="-970" y="1433" />
            </Array>
          </mxGeometry>
        </mxCell>
        <mxCell id="veb8oJTyCX44iU3UPrQK-222" value="Reporter" style="swimlane;fontStyle=1;align=center;verticalAlign=top;childLayout=stackLayout;horizontal=1;startSize=30;horizontalStack=0;resizeParent=1;resizeParentMax=0;resizeLast=0;collapsible=1;marginBottom=0;whiteSpace=wrap;html=1;" vertex="1" parent="1">
          <mxGeometry x="-1150" y="1609" width="280" height="142" as="geometry">
            <mxRectangle x="-2160" y="-176" width="100" height="30" as="alternateBounds" />
          </mxGeometry>
        </mxCell>
        <mxCell id="veb8oJTyCX44iU3UPrQK-223" value="+ report_builder: ReportBuilder" style="text;strokeColor=none;fillColor=none;align=left;verticalAlign=top;spacingLeft=4;spacingRight=4;overflow=hidden;rotatable=0;points=[[0,0.5],[1,0.5]];portConstraint=eastwest;whiteSpace=wrap;html=1;" vertex="1" parent="veb8oJTyCX44iU3UPrQK-222">
          <mxGeometry y="30" width="280" height="26" as="geometry" />
        </mxCell>
        <mxCell id="veb8oJTyCX44iU3UPrQK-224" value="+ report_visualizer: ReportVisualizer" style="text;strokeColor=none;fillColor=none;align=left;verticalAlign=top;spacingLeft=4;spacingRight=4;overflow=hidden;rotatable=0;points=[[0,0.5],[1,0.5]];portConstraint=eastwest;whiteSpace=wrap;html=1;" vertex="1" parent="veb8oJTyCX44iU3UPrQK-222">
          <mxGeometry y="56" width="280" height="26" as="geometry" />
        </mxCell>
        <mxCell id="veb8oJTyCX44iU3UPrQK-225" value="+ path_to_save: Path" style="text;strokeColor=none;fillColor=none;align=left;verticalAlign=top;spacingLeft=4;spacingRight=4;overflow=hidden;rotatable=0;points=[[0,0.5],[1,0.5]];portConstraint=eastwest;whiteSpace=wrap;html=1;" vertex="1" parent="veb8oJTyCX44iU3UPrQK-222">
          <mxGeometry y="82" width="280" height="26" as="geometry" />
        </mxCell>
        <mxCell id="veb8oJTyCX44iU3UPrQK-226" value="" style="line;strokeWidth=1;fillColor=none;align=left;verticalAlign=middle;spacingTop=-1;spacingLeft=3;spacingRight=3;rotatable=0;labelPosition=right;points=[];portConstraint=eastwest;strokeColor=inherit;" vertex="1" parent="veb8oJTyCX44iU3UPrQK-222">
          <mxGeometry y="108" width="280" height="8" as="geometry" />
        </mxCell>
        <mxCell id="veb8oJTyCX44iU3UPrQK-227" value="+ create_report(**dict[str, Any]): None" style="text;strokeColor=none;fillColor=none;align=left;verticalAlign=top;spacingLeft=4;spacingRight=4;overflow=hidden;rotatable=0;points=[[0,0.5],[1,0.5]];portConstraint=eastwest;whiteSpace=wrap;html=1;" vertex="1" parent="veb8oJTyCX44iU3UPrQK-222">
          <mxGeometry y="116" width="280" height="26" as="geometry" />
        </mxCell>
        <mxCell id="veb8oJTyCX44iU3UPrQK-228" style="edgeStyle=orthogonalEdgeStyle;rounded=0;orthogonalLoop=1;jettySize=auto;html=1;dashed=1;" edge="1" parent="1" source="veb8oJTyCX44iU3UPrQK-229" target="veb8oJTyCX44iU3UPrQK-152">
          <mxGeometry relative="1" as="geometry">
            <Array as="points">
              <mxPoint x="-1115" y="1352" />
              <mxPoint x="-1350" y="1352" />
            </Array>
          </mxGeometry>
        </mxCell>
        <mxCell id="veb8oJTyCX44iU3UPrQK-229" value="ReportGenerationStep" style="swimlane;fontStyle=1;align=center;verticalAlign=top;childLayout=stackLayout;horizontal=1;startSize=30;horizontalStack=0;resizeParent=1;resizeParentMax=0;resizeLast=0;collapsible=1;marginBottom=0;whiteSpace=wrap;html=1;" vertex="1" parent="1">
          <mxGeometry x="-1180" y="1390" width="190" height="116" as="geometry">
            <mxRectangle x="-2160" y="-176" width="100" height="30" as="alternateBounds" />
          </mxGeometry>
        </mxCell>
        <mxCell id="veb8oJTyCX44iU3UPrQK-230" value="- reporter: Reporter" style="text;strokeColor=none;fillColor=none;align=left;verticalAlign=top;spacingLeft=4;spacingRight=4;overflow=hidden;rotatable=0;points=[[0,0.5],[1,0.5]];portConstraint=eastwest;whiteSpace=wrap;html=1;" vertex="1" parent="veb8oJTyCX44iU3UPrQK-229">
          <mxGeometry y="30" width="190" height="26" as="geometry" />
        </mxCell>
        <mxCell id="veb8oJTyCX44iU3UPrQK-231" value="- config: Optional[Path] = None" style="text;strokeColor=none;fillColor=none;align=left;verticalAlign=top;spacingLeft=4;spacingRight=4;overflow=hidden;rotatable=0;points=[[0,0.5],[1,0.5]];portConstraint=eastwest;whiteSpace=wrap;html=1;" vertex="1" parent="veb8oJTyCX44iU3UPrQK-229">
          <mxGeometry y="56" width="190" height="26" as="geometry" />
        </mxCell>
        <mxCell id="veb8oJTyCX44iU3UPrQK-232" value="- loader: Optional[Loader] = None" style="text;strokeColor=none;fillColor=none;align=left;verticalAlign=top;spacingLeft=4;spacingRight=4;overflow=hidden;rotatable=0;points=[[0,0.5],[1,0.5]];portConstraint=eastwest;whiteSpace=wrap;html=1;" vertex="1" parent="veb8oJTyCX44iU3UPrQK-229">
          <mxGeometry y="82" width="190" height="26" as="geometry" />
        </mxCell>
        <mxCell id="veb8oJTyCX44iU3UPrQK-233" value="" style="line;strokeWidth=1;fillColor=none;align=left;verticalAlign=middle;spacingTop=-1;spacingLeft=3;spacingRight=3;rotatable=0;labelPosition=right;points=[];portConstraint=eastwest;strokeColor=inherit;" vertex="1" parent="veb8oJTyCX44iU3UPrQK-229">
          <mxGeometry y="108" width="190" height="8" as="geometry" />
        </mxCell>
        <mxCell id="veb8oJTyCX44iU3UPrQK-234" value="Pipeline" style="swimlane;fontStyle=1;align=center;verticalAlign=top;childLayout=stackLayout;horizontal=1;startSize=30;horizontalStack=0;resizeParent=1;resizeParentMax=0;resizeLast=0;collapsible=1;marginBottom=0;whiteSpace=wrap;html=1;" vertex="1" parent="1">
          <mxGeometry x="-1880" y="780" width="270" height="376" as="geometry">
            <mxRectangle x="-2160" y="-176" width="100" height="30" as="alternateBounds" />
          </mxGeometry>
        </mxCell>
        <mxCell id="veb8oJTyCX44iU3UPrQK-235" value="+ steps: list[Step]" style="text;strokeColor=none;fillColor=none;align=left;verticalAlign=top;spacingLeft=4;spacingRight=4;overflow=hidden;rotatable=0;points=[[0,0.5],[1,0.5]];portConstraint=eastwest;whiteSpace=wrap;html=1;" vertex="1" parent="veb8oJTyCX44iU3UPrQK-234">
          <mxGeometry y="30" width="270" height="26" as="geometry" />
        </mxCell>
        <mxCell id="veb8oJTyCX44iU3UPrQK-236" value="+ gen_data_storage: Optional[Storage] = None&lt;div&gt;&amp;nbsp;&lt;/div&gt;" style="text;strokeColor=none;fillColor=none;align=left;verticalAlign=top;spacingLeft=4;spacingRight=4;overflow=hidden;rotatable=0;points=[[0,0.5],[1,0.5]];portConstraint=eastwest;whiteSpace=wrap;html=1;" vertex="1" parent="veb8oJTyCX44iU3UPrQK-234">
          <mxGeometry y="56" width="270" height="26" as="geometry" />
        </mxCell>
        <mxCell id="veb8oJTyCX44iU3UPrQK-237" value="+ result_storage: Optional[Storage] = None&lt;div&gt;&amp;nbsp;&lt;/div&gt;" style="text;strokeColor=none;fillColor=none;align=left;verticalAlign=top;spacingLeft=4;spacingRight=4;overflow=hidden;rotatable=0;points=[[0,0.5],[1,0.5]];portConstraint=eastwest;whiteSpace=wrap;html=1;" vertex="1" parent="veb8oJTyCX44iU3UPrQK-234">
          <mxGeometry y="82" width="270" height="26" as="geometry" />
        </mxCell>
        <mxCell id="veb8oJTyCX44iU3UPrQK-238" value="- gen_data_fields: set[str] = {}&lt;div&gt;&lt;div&gt;&amp;nbsp;&lt;/div&gt;&lt;/div&gt;" style="text;strokeColor=none;fillColor=none;align=left;verticalAlign=top;spacingLeft=4;spacingRight=4;overflow=hidden;rotatable=0;points=[[0,0.5],[1,0.5]];portConstraint=eastwest;whiteSpace=wrap;html=1;" vertex="1" parent="veb8oJTyCX44iU3UPrQK-234">
          <mxGeometry y="108" width="270" height="26" as="geometry" />
        </mxCell>
        <mxCell id="veb8oJTyCX44iU3UPrQK-239" value="- result_fields: set[str] = {}&lt;div&gt;&lt;div&gt;&amp;nbsp;&lt;/div&gt;&lt;/div&gt;" style="text;strokeColor=none;fillColor=none;align=left;verticalAlign=top;spacingLeft=4;spacingRight=4;overflow=hidden;rotatable=0;points=[[0,0.5],[1,0.5]];portConstraint=eastwest;whiteSpace=wrap;html=1;" vertex="1" parent="veb8oJTyCX44iU3UPrQK-234">
          <mxGeometry y="134" width="270" height="26" as="geometry" />
        </mxCell>
        <mxCell id="veb8oJTyCX44iU3UPrQK-240" value="- meta_data: dict[str, Any] = {}&lt;div&gt;&lt;div&gt;&amp;nbsp;&lt;/div&gt;&lt;/div&gt;" style="text;strokeColor=none;fillColor=none;align=left;verticalAlign=top;spacingLeft=4;spacingRight=4;overflow=hidden;rotatable=0;points=[[0,0.5],[1,0.5]];portConstraint=eastwest;whiteSpace=wrap;html=1;" vertex="1" parent="veb8oJTyCX44iU3UPrQK-234">
          <mxGeometry y="160" width="270" height="26" as="geometry" />
        </mxCell>
        <mxCell id="veb8oJTyCX44iU3UPrQK-241" value="- gen_data_saver: Optional[Saver] = None&lt;div&gt;&lt;div&gt;&amp;nbsp;&lt;/div&gt;&lt;/div&gt;" style="text;strokeColor=none;fillColor=none;align=left;verticalAlign=top;spacingLeft=4;spacingRight=4;overflow=hidden;rotatable=0;points=[[0,0.5],[1,0.5]];portConstraint=eastwest;whiteSpace=wrap;html=1;" vertex="1" parent="veb8oJTyCX44iU3UPrQK-234">
          <mxGeometry y="186" width="270" height="26" as="geometry" />
        </mxCell>
        <mxCell id="veb8oJTyCX44iU3UPrQK-242" value="- gen_data_loader: Optional[Loader] = None&lt;div&gt;&lt;div&gt;&amp;nbsp;&lt;/div&gt;&lt;/div&gt;" style="text;strokeColor=none;fillColor=none;align=left;verticalAlign=top;spacingLeft=4;spacingRight=4;overflow=hidden;rotatable=0;points=[[0,0.5],[1,0.5]];portConstraint=eastwest;whiteSpace=wrap;html=1;" vertex="1" parent="veb8oJTyCX44iU3UPrQK-234">
          <mxGeometry y="212" width="270" height="26" as="geometry" />
        </mxCell>
        <mxCell id="veb8oJTyCX44iU3UPrQK-243" value="- result_saver: Optional[Saver] = None&lt;div&gt;&lt;div&gt;&amp;nbsp;&lt;/div&gt;&lt;/div&gt;" style="text;strokeColor=none;fillColor=none;align=left;verticalAlign=top;spacingLeft=4;spacingRight=4;overflow=hidden;rotatable=0;points=[[0,0.5],[1,0.5]];portConstraint=eastwest;whiteSpace=wrap;html=1;" vertex="1" parent="veb8oJTyCX44iU3UPrQK-234">
          <mxGeometry y="238" width="270" height="26" as="geometry" />
        </mxCell>
        <mxCell id="veb8oJTyCX44iU3UPrQK-244" value="- result_loader: Optional[Loader] = None&lt;div&gt;&lt;div&gt;&amp;nbsp;&lt;/div&gt;&lt;/div&gt;" style="text;strokeColor=none;fillColor=none;align=left;verticalAlign=top;spacingLeft=4;spacingRight=4;overflow=hidden;rotatable=0;points=[[0,0.5],[1,0.5]];portConstraint=eastwest;whiteSpace=wrap;html=1;" vertex="1" parent="veb8oJTyCX44iU3UPrQK-234">
          <mxGeometry y="264" width="270" height="26" as="geometry" />
        </mxCell>
        <mxCell id="veb8oJTyCX44iU3UPrQK-245" value="" style="line;strokeWidth=1;fillColor=none;align=left;verticalAlign=middle;spacingTop=-1;spacingLeft=3;spacingRight=3;rotatable=0;labelPosition=right;points=[];portConstraint=eastwest;strokeColor=inherit;" vertex="1" parent="veb8oJTyCX44iU3UPrQK-234">
          <mxGeometry y="290" width="270" height="8" as="geometry" />
        </mxCell>
        <mxCell id="veb8oJTyCX44iU3UPrQK-246" value="+ config_pipeline(): bool" style="text;strokeColor=none;fillColor=none;align=left;verticalAlign=top;spacingLeft=4;spacingRight=4;overflow=hidden;rotatable=0;points=[[0,0.5],[1,0.5]];portConstraint=eastwest;whiteSpace=wrap;html=1;" vertex="1" parent="veb8oJTyCX44iU3UPrQK-234">
          <mxGeometry y="298" width="270" height="26" as="geometry" />
        </mxCell>
        <mxCell id="veb8oJTyCX44iU3UPrQK-247" value="- steup_db(set[str]): Storage" style="text;strokeColor=none;fillColor=none;align=left;verticalAlign=top;spacingLeft=4;spacingRight=4;overflow=hidden;rotatable=0;points=[[0,0.5],[1,0.5]];portConstraint=eastwest;whiteSpace=wrap;html=1;" vertex="1" parent="veb8oJTyCX44iU3UPrQK-234">
          <mxGeometry y="324" width="270" height="26" as="geometry" />
        </mxCell>
        <mxCell id="veb8oJTyCX44iU3UPrQK-248" value="+ run(): None" style="text;strokeColor=none;fillColor=none;align=left;verticalAlign=top;spacingLeft=4;spacingRight=4;overflow=hidden;rotatable=0;points=[[0,0.5],[1,0.5]];portConstraint=eastwest;whiteSpace=wrap;html=1;" vertex="1" parent="veb8oJTyCX44iU3UPrQK-234">
          <mxGeometry y="350" width="270" height="26" as="geometry" />
        </mxCell>
        <mxCell id="veb8oJTyCX44iU3UPrQK-249" style="edgeStyle=orthogonalEdgeStyle;rounded=0;orthogonalLoop=1;jettySize=auto;html=1;" edge="1" parent="1" source="veb8oJTyCX44iU3UPrQK-250" target="veb8oJTyCX44iU3UPrQK-333">
          <mxGeometry relative="1" as="geometry" />
        </mxCell>
        <mxCell id="veb8oJTyCX44iU3UPrQK-250" value="&lt;i style=&quot;font-weight: 400;&quot;&gt;&amp;lt;&amp;lt;Interface&amp;gt;&amp;gt;&lt;/i&gt;&lt;br style=&quot;font-weight: 400;&quot;&gt;&lt;b&gt;Step&lt;/b&gt;" style="swimlane;fontStyle=1;align=center;verticalAlign=top;childLayout=stackLayout;horizontal=1;startSize=44;horizontalStack=0;resizeParent=1;resizeParentMax=0;resizeLast=0;collapsible=1;marginBottom=0;whiteSpace=wrap;html=1;" vertex="1" parent="1">
          <mxGeometry x="-3265" y="942" width="380" height="312" as="geometry">
            <mxRectangle x="-2160" y="-176" width="100" height="30" as="alternateBounds" />
          </mxGeometry>
        </mxCell>
        <mxCell id="veb8oJTyCX44iU3UPrQK-251" value="+ name: str = &quot;Step&quot;" style="text;strokeColor=none;fillColor=none;align=left;verticalAlign=top;spacingLeft=4;spacingRight=4;overflow=hidden;rotatable=0;points=[[0,0.5],[1,0.5]];portConstraint=eastwest;whiteSpace=wrap;html=1;" vertex="1" parent="veb8oJTyCX44iU3UPrQK-250">
          <mxGeometry y="44" width="380" height="26" as="geometry" />
        </mxCell>
        <mxCell id="veb8oJTyCX44iU3UPrQK-252" value="+&lt;span style=&quot;background-color: transparent; color: light-dark(rgb(0, 0, 0), rgb(255, 255, 255));&quot;&gt;&amp;nbsp;&lt;/span&gt;&lt;span style=&quot;background-color: transparent; color: light-dark(rgb(0, 0, 0), rgb(255, 255, 255));&quot;&gt;input_storage_names: Optional[set[str]] = None&lt;/span&gt;" style="text;strokeColor=none;fillColor=none;align=left;verticalAlign=top;spacingLeft=4;spacingRight=4;overflow=hidden;rotatable=0;points=[[0,0.5],[1,0.5]];portConstraint=eastwest;whiteSpace=wrap;html=1;" vertex="1" parent="veb8oJTyCX44iU3UPrQK-250">
          <mxGeometry y="70" width="380" height="26" as="geometry" />
        </mxCell>
        <mxCell id="veb8oJTyCX44iU3UPrQK-253" value="+&lt;span style=&quot;background-color: transparent; color: light-dark(rgb(0, 0, 0), rgb(255, 255, 255));&quot;&gt;&amp;nbsp;&lt;/span&gt;&lt;span style=&quot;background-color: transparent; color: light-dark(rgb(0, 0, 0), rgb(255, 255, 255));&quot;&gt;output_storage_names: Optional[&lt;/span&gt;set[str] | dict[str: str]] = None" style="text;strokeColor=none;fillColor=none;align=left;verticalAlign=top;spacingLeft=4;spacingRight=4;overflow=hidden;rotatable=0;points=[[0,0.5],[1,0.5]];portConstraint=eastwest;whiteSpace=wrap;html=1;" vertex="1" parent="veb8oJTyCX44iU3UPrQK-250">
          <mxGeometry y="96" width="380" height="26" as="geometry" />
        </mxCell>
        <mxCell id="veb8oJTyCX44iU3UPrQK-254" value="+&lt;span style=&quot;background-color: transparent; color: light-dark(rgb(0, 0, 0), rgb(255, 255, 255));&quot;&gt;&amp;nbsp;input_step&lt;/span&gt;&lt;span style=&quot;background-color: transparent; color: light-dark(rgb(0, 0, 0), rgb(255, 255, 255));&quot;&gt;_names: Optional[&lt;/span&gt;&lt;span style=&quot;background-color: transparent;&quot;&gt;set[str] | dict[str, str]]&amp;nbsp; = None&lt;/span&gt;&lt;div&gt;&lt;br&gt;&lt;/div&gt;" style="text;strokeColor=none;fillColor=none;align=left;verticalAlign=top;spacingLeft=4;spacingRight=4;overflow=hidden;rotatable=0;points=[[0,0.5],[1,0.5]];portConstraint=eastwest;whiteSpace=wrap;html=1;" vertex="1" parent="veb8oJTyCX44iU3UPrQK-250">
          <mxGeometry y="122" width="380" height="26" as="geometry" />
        </mxCell>
        <mxCell id="veb8oJTyCX44iU3UPrQK-255" value="+&lt;span style=&quot;background-color: transparent; color: light-dark(rgb(0, 0, 0), rgb(255, 255, 255));&quot;&gt;&amp;nbsp;output_step&lt;/span&gt;&lt;span style=&quot;background-color: transparent; color: light-dark(rgb(0, 0, 0), rgb(255, 255, 255));&quot;&gt;_names: Optional[&lt;/span&gt;&lt;span style=&quot;background-color: transparent;&quot;&gt;set[str] | dict[str, str]]&amp;nbsp; = None&lt;/span&gt;&lt;div&gt;&lt;br&gt;&lt;/div&gt;" style="text;strokeColor=none;fillColor=none;align=left;verticalAlign=top;spacingLeft=4;spacingRight=4;overflow=hidden;rotatable=0;points=[[0,0.5],[1,0.5]];portConstraint=eastwest;whiteSpace=wrap;html=1;" vertex="1" parent="veb8oJTyCX44iU3UPrQK-250">
          <mxGeometry y="148" width="380" height="26" as="geometry" />
        </mxCell>
        <mxCell id="veb8oJTyCX44iU3UPrQK-256" value="+&lt;span style=&quot;background-color: transparent; color: light-dark(rgb(0, 0, 0), rgb(255, 255, 255));&quot;&gt;&amp;nbsp;&lt;/span&gt;&lt;span style=&quot;background-color: transparent; color: light-dark(rgb(0, 0, 0), rgb(255, 255, 255));&quot;&gt;input_storage: Optional[Storage] = None&lt;/span&gt;" style="text;strokeColor=none;fillColor=none;align=left;verticalAlign=top;spacingLeft=4;spacingRight=4;overflow=hidden;rotatable=0;points=[[0,0.5],[1,0.5]];portConstraint=eastwest;whiteSpace=wrap;html=1;" vertex="1" parent="veb8oJTyCX44iU3UPrQK-250">
          <mxGeometry y="174" width="380" height="26" as="geometry" />
        </mxCell>
        <mxCell id="veb8oJTyCX44iU3UPrQK-257" value="+&lt;span style=&quot;background-color: transparent; color: light-dark(rgb(0, 0, 0), rgb(255, 255, 255));&quot;&gt;&amp;nbsp;output&lt;/span&gt;&lt;span style=&quot;background-color: transparent; color: light-dark(rgb(0, 0, 0), rgb(255, 255, 255));&quot;&gt;_storage:&amp;nbsp;&lt;/span&gt;Optional[Storage] = None" style="text;strokeColor=none;fillColor=none;align=left;verticalAlign=top;spacingLeft=4;spacingRight=4;overflow=hidden;rotatable=0;points=[[0,0.5],[1,0.5]];portConstraint=eastwest;whiteSpace=wrap;html=1;" vertex="1" parent="veb8oJTyCX44iU3UPrQK-250">
          <mxGeometry y="200" width="380" height="26" as="geometry" />
        </mxCell>
        <mxCell id="veb8oJTyCX44iU3UPrQK-258" value="- next: Opt[Step] = None" style="text;strokeColor=none;fillColor=none;align=left;verticalAlign=top;spacingLeft=4;spacingRight=4;overflow=hidden;rotatable=0;points=[[0,0.5],[1,0.5]];portConstraint=eastwest;whiteSpace=wrap;html=1;" vertex="1" parent="veb8oJTyCX44iU3UPrQK-250">
          <mxGeometry y="226" width="380" height="26" as="geometry" />
        </mxCell>
        <mxCell id="veb8oJTyCX44iU3UPrQK-259" value="" style="line;strokeWidth=1;fillColor=none;align=left;verticalAlign=middle;spacingTop=-1;spacingLeft=3;spacingRight=3;rotatable=0;labelPosition=right;points=[];portConstraint=eastwest;strokeColor=inherit;" vertex="1" parent="veb8oJTyCX44iU3UPrQK-250">
          <mxGeometry y="252" width="380" height="8" as="geometry" />
        </mxCell>
        <mxCell id="veb8oJTyCX44iU3UPrQK-260" value="+ __call__(): Optional[dict[str, Any]]" style="text;strokeColor=none;fillColor=none;align=left;verticalAlign=top;spacingLeft=4;spacingRight=4;overflow=hidden;rotatable=0;points=[[0,0.5],[1,0.5]];portConstraint=eastwest;whiteSpace=wrap;html=1;" vertex="1" parent="veb8oJTyCX44iU3UPrQK-250">
          <mxGeometry y="260" width="380" height="26" as="geometry" />
        </mxCell>
        <mxCell id="veb8oJTyCX44iU3UPrQK-261" value="+ set_next(Step, list[str], list[str]): None" style="text;strokeColor=none;fillColor=none;align=left;verticalAlign=top;spacingLeft=4;spacingRight=4;overflow=hidden;rotatable=0;points=[[0,0.5],[1,0.5]];portConstraint=eastwest;whiteSpace=wrap;html=1;" vertex="1" parent="veb8oJTyCX44iU3UPrQK-250">
          <mxGeometry y="286" width="380" height="26" as="geometry" />
        </mxCell>
        <mxCell id="veb8oJTyCX44iU3UPrQK-262" style="edgeStyle=orthogonalEdgeStyle;rounded=0;orthogonalLoop=1;jettySize=auto;html=1;dashed=1;" edge="1" parent="1" source="veb8oJTyCX44iU3UPrQK-263" target="veb8oJTyCX44iU3UPrQK-250">
          <mxGeometry relative="1" as="geometry">
            <mxPoint x="-3275" y="1372" as="sourcePoint" />
            <Array as="points">
              <mxPoint x="-3280" y="1322" />
              <mxPoint x="-3055" y="1322" />
            </Array>
          </mxGeometry>
        </mxCell>
        <mxCell id="veb8oJTyCX44iU3UPrQK-263" value="&lt;b&gt;DataGenerationStep&lt;/b&gt;" style="swimlane;fontStyle=1;align=center;verticalAlign=top;childLayout=stackLayout;horizontal=1;startSize=30;horizontalStack=0;resizeParent=1;resizeParentMax=0;resizeLast=0;collapsible=1;marginBottom=0;whiteSpace=wrap;html=1;" vertex="1" parent="1">
          <mxGeometry x="-3445" y="1350" width="190" height="116" as="geometry">
            <mxRectangle x="-2160" y="-176" width="100" height="30" as="alternateBounds" />
          </mxGeometry>
        </mxCell>
        <mxCell id="veb8oJTyCX44iU3UPrQK-264" value="- data_handler: DataHandler" style="text;strokeColor=none;fillColor=none;align=left;verticalAlign=top;spacingLeft=4;spacingRight=4;overflow=hidden;rotatable=0;points=[[0,0.5],[1,0.5]];portConstraint=eastwest;whiteSpace=wrap;html=1;" vertex="1" parent="veb8oJTyCX44iU3UPrQK-263">
          <mxGeometry y="30" width="190" height="26" as="geometry" />
        </mxCell>
        <mxCell id="veb8oJTyCX44iU3UPrQK-265" value="- config: Optional[Path] = None" style="text;strokeColor=none;fillColor=none;align=left;verticalAlign=top;spacingLeft=4;spacingRight=4;overflow=hidden;rotatable=0;points=[[0,0.5],[1,0.5]];portConstraint=eastwest;whiteSpace=wrap;html=1;" vertex="1" parent="veb8oJTyCX44iU3UPrQK-263">
          <mxGeometry y="56" width="190" height="26" as="geometry" />
        </mxCell>
        <mxCell id="veb8oJTyCX44iU3UPrQK-266" value="- saver: Optional[Saver] = None" style="text;strokeColor=none;fillColor=none;align=left;verticalAlign=top;spacingLeft=4;spacingRight=4;overflow=hidden;rotatable=0;points=[[0,0.5],[1,0.5]];portConstraint=eastwest;whiteSpace=wrap;html=1;" vertex="1" parent="veb8oJTyCX44iU3UPrQK-263">
          <mxGeometry y="82" width="190" height="26" as="geometry" />
        </mxCell>
        <mxCell id="veb8oJTyCX44iU3UPrQK-267" value="" style="line;strokeWidth=1;fillColor=none;align=left;verticalAlign=middle;spacingTop=-1;spacingLeft=3;spacingRight=3;rotatable=0;labelPosition=right;points=[];portConstraint=eastwest;strokeColor=inherit;" vertex="1" parent="veb8oJTyCX44iU3UPrQK-263">
          <mxGeometry y="108" width="190" height="8" as="geometry" />
        </mxCell>
        <mxCell id="veb8oJTyCX44iU3UPrQK-270" value="&lt;i style=&quot;font-weight: 400;&quot;&gt;&amp;lt;&amp;lt;Interface&amp;gt;&amp;gt;&lt;/i&gt;&lt;br style=&quot;font-weight: 400;&quot;&gt;&lt;b&gt;Saver&lt;/b&gt;" style="swimlane;fontStyle=1;align=center;verticalAlign=top;childLayout=stackLayout;horizontal=1;startSize=44;horizontalStack=0;resizeParent=1;resizeParentMax=0;resizeLast=0;collapsible=1;marginBottom=0;whiteSpace=wrap;html=1;" vertex="1" parent="1">
          <mxGeometry x="-3905" y="759" width="240" height="156" as="geometry">
            <mxRectangle x="-2160" y="-176" width="100" height="30" as="alternateBounds" />
          </mxGeometry>
        </mxCell>
        <mxCell id="veb8oJTyCX44iU3UPrQK-271" value="+ storage: Storage" style="text;strokeColor=none;fillColor=none;align=left;verticalAlign=top;spacingLeft=4;spacingRight=4;overflow=hidden;rotatable=0;points=[[0,0.5],[1,0.5]];portConstraint=eastwest;whiteSpace=wrap;html=1;" vertex="1" parent="veb8oJTyCX44iU3UPrQK-270">
          <mxGeometry y="44" width="240" height="26" as="geometry" />
        </mxCell>
        <mxCell id="veb8oJTyCX44iU3UPrQK-272" value="+ data: dict[str, Any] = {}" style="text;strokeColor=none;fillColor=none;align=left;verticalAlign=top;spacingLeft=4;spacingRight=4;overflow=hidden;rotatable=0;points=[[0,0.5],[1,0.5]];portConstraint=eastwest;whiteSpace=wrap;html=1;" vertex="1" parent="veb8oJTyCX44iU3UPrQK-270">
          <mxGeometry y="70" width="240" height="26" as="geometry" />
        </mxCell>
        <mxCell id="veb8oJTyCX44iU3UPrQK-273" value="+ data_to_save: set[str] | dict[str, str] = {}" style="text;strokeColor=none;fillColor=none;align=left;verticalAlign=top;spacingLeft=4;spacingRight=4;overflow=hidden;rotatable=0;points=[[0,0.5],[1,0.5]];portConstraint=eastwest;whiteSpace=wrap;html=1;" vertex="1" parent="veb8oJTyCX44iU3UPrQK-270">
          <mxGeometry y="96" width="240" height="26" as="geometry" />
        </mxCell>
        <mxCell id="veb8oJTyCX44iU3UPrQK-274" value="" style="line;strokeWidth=1;fillColor=none;align=left;verticalAlign=middle;spacingTop=-1;spacingLeft=3;spacingRight=3;rotatable=0;labelPosition=right;points=[];portConstraint=eastwest;strokeColor=inherit;" vertex="1" parent="veb8oJTyCX44iU3UPrQK-270">
          <mxGeometry y="122" width="240" height="8" as="geometry" />
        </mxCell>
        <mxCell id="veb8oJTyCX44iU3UPrQK-275" value="+ __call__(): None" style="text;strokeColor=none;fillColor=none;align=left;verticalAlign=top;spacingLeft=4;spacingRight=4;overflow=hidden;rotatable=0;points=[[0,0.5],[1,0.5]];portConstraint=eastwest;whiteSpace=wrap;html=1;" vertex="1" parent="veb8oJTyCX44iU3UPrQK-270">
          <mxGeometry y="130" width="240" height="26" as="geometry" />
        </mxCell>
        <mxCell id="veb8oJTyCX44iU3UPrQK-278" value="&lt;i style=&quot;font-weight: 400;&quot;&gt;&amp;lt;&amp;lt;Interface&amp;gt;&amp;gt;&lt;/i&gt;&lt;br style=&quot;font-weight: 400;&quot;&gt;&lt;b&gt;Loader&lt;/b&gt;" style="swimlane;fontStyle=1;align=center;verticalAlign=top;childLayout=stackLayout;horizontal=1;startSize=44;horizontalStack=0;resizeParent=1;resizeParentMax=0;resizeLast=0;collapsible=1;marginBottom=0;whiteSpace=wrap;html=1;" vertex="1" parent="1">
          <mxGeometry x="-3905" y="972" width="240" height="130" as="geometry">
            <mxRectangle x="-2160" y="-176" width="100" height="30" as="alternateBounds" />
          </mxGeometry>
        </mxCell>
        <mxCell id="veb8oJTyCX44iU3UPrQK-279" value="+ storage: Storage" style="text;strokeColor=none;fillColor=none;align=left;verticalAlign=top;spacingLeft=4;spacingRight=4;overflow=hidden;rotatable=0;points=[[0,0.5],[1,0.5]];portConstraint=eastwest;whiteSpace=wrap;html=1;" vertex="1" parent="veb8oJTyCX44iU3UPrQK-278">
          <mxGeometry y="44" width="240" height="26" as="geometry" />
        </mxCell>
        <mxCell id="veb8oJTyCX44iU3UPrQK-280" value="+ data_to_load: set[str] | dict[str, str] = {}" style="text;strokeColor=none;fillColor=none;align=left;verticalAlign=top;spacingLeft=4;spacingRight=4;overflow=hidden;rotatable=0;points=[[0,0.5],[1,0.5]];portConstraint=eastwest;whiteSpace=wrap;html=1;" vertex="1" parent="veb8oJTyCX44iU3UPrQK-278">
          <mxGeometry y="70" width="240" height="26" as="geometry" />
        </mxCell>
        <mxCell id="veb8oJTyCX44iU3UPrQK-281" value="" style="line;strokeWidth=1;fillColor=none;align=left;verticalAlign=middle;spacingTop=-1;spacingLeft=3;spacingRight=3;rotatable=0;labelPosition=right;points=[];portConstraint=eastwest;strokeColor=inherit;" vertex="1" parent="veb8oJTyCX44iU3UPrQK-278">
          <mxGeometry y="96" width="240" height="8" as="geometry" />
        </mxCell>
        <mxCell id="veb8oJTyCX44iU3UPrQK-282" value="+ __call__(): dict[str, Any]" style="text;strokeColor=none;fillColor=none;align=left;verticalAlign=top;spacingLeft=4;spacingRight=4;overflow=hidden;rotatable=0;points=[[0,0.5],[1,0.5]];portConstraint=eastwest;whiteSpace=wrap;html=1;" vertex="1" parent="veb8oJTyCX44iU3UPrQK-278">
          <mxGeometry y="104" width="240" height="26" as="geometry" />
        </mxCell>
        <mxCell id="veb8oJTyCX44iU3UPrQK-283" style="edgeStyle=orthogonalEdgeStyle;rounded=0;orthogonalLoop=1;jettySize=auto;html=1;dashed=1;" edge="1" parent="1" source="veb8oJTyCX44iU3UPrQK-294" target="veb8oJTyCX44iU3UPrQK-284">
          <mxGeometry relative="1" as="geometry">
            <mxPoint x="-4512.484848484848" y="1310" as="sourcePoint" />
            <Array as="points">
              <mxPoint x="-4545" y="1261" />
              <mxPoint x="-4240" y="1261" />
            </Array>
          </mxGeometry>
        </mxCell>
        <mxCell id="veb8oJTyCX44iU3UPrQK-284" value="&lt;i style=&quot;font-weight: 400;&quot;&gt;&amp;lt;&amp;lt;Interface&amp;gt;&amp;gt;&lt;/i&gt;&lt;br style=&quot;font-weight: 400;&quot;&gt;&lt;b&gt;StepProcessor&lt;/b&gt;" style="swimlane;fontStyle=1;align=center;verticalAlign=top;childLayout=stackLayout;horizontal=1;startSize=44;horizontalStack=0;resizeParent=1;resizeParentMax=0;resizeLast=0;collapsible=1;marginBottom=0;whiteSpace=wrap;html=1;" vertex="1" parent="1">
          <mxGeometry x="-4410" y="980" width="340" height="234" as="geometry">
            <mxRectangle x="-2160" y="-176" width="100" height="30" as="alternateBounds" />
          </mxGeometry>
        </mxCell>
        <mxCell id="veb8oJTyCX44iU3UPrQK-285" value="+&lt;span style=&quot;background-color: transparent; color: light-dark(rgb(0, 0, 0), rgb(255, 255, 255));&quot;&gt;&amp;nbsp;&lt;/span&gt;&lt;span style=&quot;background-color: transparent; color: light-dark(rgb(0, 0, 0), rgb(255, 255, 255));&quot;&gt;input_storage_names: set[str] = {}&lt;/span&gt;" style="text;strokeColor=none;fillColor=none;align=left;verticalAlign=top;spacingLeft=4;spacingRight=4;overflow=hidden;rotatable=0;points=[[0,0.5],[1,0.5]];portConstraint=eastwest;whiteSpace=wrap;html=1;" vertex="1" parent="veb8oJTyCX44iU3UPrQK-284">
          <mxGeometry y="44" width="340" height="26" as="geometry" />
        </mxCell>
        <mxCell id="veb8oJTyCX44iU3UPrQK-286" value="+&lt;span style=&quot;background-color: transparent; color: light-dark(rgb(0, 0, 0), rgb(255, 255, 255));&quot;&gt;&amp;nbsp;output_step&lt;/span&gt;&lt;span style=&quot;background-color: transparent; color: light-dark(rgb(0, 0, 0), rgb(255, 255, 255));&quot;&gt;_names:&amp;nbsp;&lt;/span&gt;&lt;span style=&quot;background-color: transparent;&quot;&gt;set[str]&amp;nbsp; = {}&lt;/span&gt;" style="text;strokeColor=none;fillColor=none;align=left;verticalAlign=top;spacingLeft=4;spacingRight=4;overflow=hidden;rotatable=0;points=[[0,0.5],[1,0.5]];portConstraint=eastwest;whiteSpace=wrap;html=1;" vertex="1" parent="veb8oJTyCX44iU3UPrQK-284">
          <mxGeometry y="70" width="340" height="26" as="geometry" />
        </mxCell>
        <mxCell id="veb8oJTyCX44iU3UPrQK-287" value="+&lt;span style=&quot;background-color: transparent; color: light-dark(rgb(0, 0, 0), rgb(255, 255, 255));&quot;&gt;&amp;nbsp;input_step&lt;/span&gt;&lt;span style=&quot;background-color: transparent; color: light-dark(rgb(0, 0, 0), rgb(255, 255, 255));&quot;&gt;_names:&amp;nbsp;&lt;/span&gt;&lt;span style=&quot;background-color: transparent;&quot;&gt;set[str] = {}&lt;/span&gt;&lt;div&gt;&lt;br&gt;&lt;/div&gt;" style="text;strokeColor=none;fillColor=none;align=left;verticalAlign=top;spacingLeft=4;spacingRight=4;overflow=hidden;rotatable=0;points=[[0,0.5],[1,0.5]];portConstraint=eastwest;whiteSpace=wrap;html=1;" vertex="1" parent="veb8oJTyCX44iU3UPrQK-284">
          <mxGeometry y="96" width="340" height="26" as="geometry" />
        </mxCell>
        <mxCell id="veb8oJTyCX44iU3UPrQK-288" value="+&lt;span style=&quot;background-color: transparent; color: light-dark(rgb(0, 0, 0), rgb(255, 255, 255));&quot;&gt;&amp;nbsp;&lt;/span&gt;&lt;span style=&quot;background-color: transparent; color: light-dark(rgb(0, 0, 0), rgb(255, 255, 255));&quot;&gt;output_storage_names:&amp;nbsp;&lt;/span&gt;set[str] = {}" style="text;strokeColor=none;fillColor=none;align=left;verticalAlign=top;spacingLeft=4;spacingRight=4;overflow=hidden;rotatable=0;points=[[0,0.5],[1,0.5]];portConstraint=eastwest;whiteSpace=wrap;html=1;" vertex="1" parent="veb8oJTyCX44iU3UPrQK-284">
          <mxGeometry y="122" width="340" height="26" as="geometry" />
        </mxCell>
        <mxCell id="veb8oJTyCX44iU3UPrQK-289" value="+ previouse_step_data: dict[str, Any] = {}" style="text;strokeColor=none;fillColor=none;align=left;verticalAlign=top;spacingLeft=4;spacingRight=4;overflow=hidden;rotatable=0;points=[[0,0.5],[1,0.5]];portConstraint=eastwest;whiteSpace=wrap;html=1;" vertex="1" parent="veb8oJTyCX44iU3UPrQK-284">
          <mxGeometry y="148" width="340" height="26" as="geometry" />
        </mxCell>
        <mxCell id="veb8oJTyCX44iU3UPrQK-290" value="- config: Optional[Path] = None" style="text;strokeColor=none;fillColor=none;align=left;verticalAlign=top;spacingLeft=4;spacingRight=4;overflow=hidden;rotatable=0;points=[[0,0.5],[1,0.5]];portConstraint=eastwest;whiteSpace=wrap;html=1;" vertex="1" parent="veb8oJTyCX44iU3UPrQK-284">
          <mxGeometry y="174" width="340" height="26" as="geometry" />
        </mxCell>
        <mxCell id="veb8oJTyCX44iU3UPrQK-291" value="" style="line;strokeWidth=1;fillColor=none;align=left;verticalAlign=middle;spacingTop=-1;spacingLeft=3;spacingRight=3;rotatable=0;labelPosition=right;points=[];portConstraint=eastwest;strokeColor=inherit;" vertex="1" parent="veb8oJTyCX44iU3UPrQK-284">
          <mxGeometry y="200" width="340" height="8" as="geometry" />
        </mxCell>
        <mxCell id="veb8oJTyCX44iU3UPrQK-292" value="+ validate_output(dict[str, Any]): bool" style="text;strokeColor=none;fillColor=none;align=left;verticalAlign=top;spacingLeft=4;spacingRight=4;overflow=hidden;rotatable=0;points=[[0,0.5],[1,0.5]];portConstraint=eastwest;whiteSpace=wrap;html=1;" vertex="1" parent="veb8oJTyCX44iU3UPrQK-284">
          <mxGeometry y="208" width="340" height="26" as="geometry" />
        </mxCell>
        <mxCell id="veb8oJTyCX44iU3UPrQK-294" value="&lt;i style=&quot;font-weight: 400;&quot;&gt;&amp;lt;&amp;lt;Interface&amp;gt;&amp;gt;&lt;/i&gt;&lt;br style=&quot;font-weight: 400;&quot;&gt;&lt;b&gt;DataHandler&lt;/b&gt;" style="swimlane;fontStyle=1;align=center;verticalAlign=top;childLayout=stackLayout;horizontal=1;startSize=44;horizontalStack=0;resizeParent=1;resizeParentMax=0;resizeLast=0;collapsible=1;marginBottom=0;whiteSpace=wrap;html=1;" vertex="1" parent="1">
          <mxGeometry x="-4680" y="1361" width="270" height="78" as="geometry">
            <mxRectangle x="-2160" y="-176" width="100" height="30" as="alternateBounds" />
          </mxGeometry>
        </mxCell>
        <mxCell id="veb8oJTyCX44iU3UPrQK-295" value="" style="line;strokeWidth=1;fillColor=none;align=left;verticalAlign=middle;spacingTop=-1;spacingLeft=3;spacingRight=3;rotatable=0;labelPosition=right;points=[];portConstraint=eastwest;strokeColor=inherit;" vertex="1" parent="veb8oJTyCX44iU3UPrQK-294">
          <mxGeometry y="44" width="270" height="8" as="geometry" />
        </mxCell>
        <mxCell id="veb8oJTyCX44iU3UPrQK-296" value="+ get_data(**dict[str, Any]): Iterator[dict[str, Any]]" style="text;strokeColor=none;fillColor=none;align=left;verticalAlign=top;spacingLeft=4;spacingRight=4;overflow=hidden;rotatable=0;points=[[0,0.5],[1,0.5]];portConstraint=eastwest;whiteSpace=wrap;html=1;" vertex="1" parent="veb8oJTyCX44iU3UPrQK-294">
          <mxGeometry y="52" width="270" height="26" as="geometry" />
        </mxCell>
        <mxCell id="veb8oJTyCX44iU3UPrQK-298" value="&lt;i style=&quot;font-weight: 400;&quot;&gt;&amp;lt;&amp;lt;Interface&amp;gt;&amp;gt;&lt;/i&gt;&lt;br style=&quot;font-weight: 400;&quot;&gt;&lt;b&gt;Worker&lt;/b&gt;" style="swimlane;fontStyle=1;align=center;verticalAlign=top;childLayout=stackLayout;horizontal=1;startSize=44;horizontalStack=0;resizeParent=1;resizeParentMax=0;resizeLast=0;collapsible=1;marginBottom=0;whiteSpace=wrap;html=1;" vertex="1" parent="1">
          <mxGeometry x="-4372.5" y="1361" width="265" height="78" as="geometry">
            <mxRectangle x="-2160" y="-176" width="100" height="30" as="alternateBounds" />
          </mxGeometry>
        </mxCell>
        <mxCell id="veb8oJTyCX44iU3UPrQK-299" value="" style="line;strokeWidth=1;fillColor=none;align=left;verticalAlign=middle;spacingTop=-1;spacingLeft=3;spacingRight=3;rotatable=0;labelPosition=right;points=[];portConstraint=eastwest;strokeColor=inherit;" vertex="1" parent="veb8oJTyCX44iU3UPrQK-298">
          <mxGeometry y="44" width="265" height="8" as="geometry" />
        </mxCell>
        <mxCell id="veb8oJTyCX44iU3UPrQK-300" value="+ run(**dict[str, Any]): Iterator[dict[str, Any]]" style="text;strokeColor=none;fillColor=none;align=left;verticalAlign=top;spacingLeft=4;spacingRight=4;overflow=hidden;rotatable=0;points=[[0,0.5],[1,0.5]];portConstraint=eastwest;whiteSpace=wrap;html=1;" vertex="1" parent="veb8oJTyCX44iU3UPrQK-298">
          <mxGeometry y="52" width="265" height="26" as="geometry" />
        </mxCell>
        <mxCell id="veb8oJTyCX44iU3UPrQK-301" style="edgeStyle=orthogonalEdgeStyle;rounded=0;orthogonalLoop=1;jettySize=auto;html=1;dashed=1;" edge="1" parent="1" source="veb8oJTyCX44iU3UPrQK-298" target="veb8oJTyCX44iU3UPrQK-284">
          <mxGeometry relative="1" as="geometry" />
        </mxCell>
        <mxCell id="veb8oJTyCX44iU3UPrQK-302" style="edgeStyle=orthogonalEdgeStyle;rounded=0;orthogonalLoop=1;jettySize=auto;html=1;dashed=1;" edge="1" parent="1" source="veb8oJTyCX44iU3UPrQK-303" target="veb8oJTyCX44iU3UPrQK-250">
          <mxGeometry relative="1" as="geometry">
            <Array as="points">
              <mxPoint x="-3055" y="1282" />
              <mxPoint x="-3055" y="1282" />
            </Array>
          </mxGeometry>
        </mxCell>
        <mxCell id="veb8oJTyCX44iU3UPrQK-303" value="TestExecutionStep" style="swimlane;fontStyle=1;align=center;verticalAlign=top;childLayout=stackLayout;horizontal=1;startSize=30;horizontalStack=0;resizeParent=1;resizeParentMax=0;resizeLast=0;collapsible=1;marginBottom=0;whiteSpace=wrap;html=1;" vertex="1" parent="1">
          <mxGeometry x="-3155" y="1390" width="190" height="142" as="geometry">
            <mxRectangle x="-2160" y="-176" width="100" height="30" as="alternateBounds" />
          </mxGeometry>
        </mxCell>
        <mxCell id="veb8oJTyCX44iU3UPrQK-304" value="- worker: Worker" style="text;strokeColor=none;fillColor=none;align=left;verticalAlign=top;spacingLeft=4;spacingRight=4;overflow=hidden;rotatable=0;points=[[0,0.5],[1,0.5]];portConstraint=eastwest;whiteSpace=wrap;html=1;" vertex="1" parent="veb8oJTyCX44iU3UPrQK-303">
          <mxGeometry y="30" width="190" height="26" as="geometry" />
        </mxCell>
        <mxCell id="veb8oJTyCX44iU3UPrQK-305" value="- config: Optional[Path] = None" style="text;strokeColor=none;fillColor=none;align=left;verticalAlign=top;spacingLeft=4;spacingRight=4;overflow=hidden;rotatable=0;points=[[0,0.5],[1,0.5]];portConstraint=eastwest;whiteSpace=wrap;html=1;" vertex="1" parent="veb8oJTyCX44iU3UPrQK-303">
          <mxGeometry y="56" width="190" height="26" as="geometry" />
        </mxCell>
        <mxCell id="veb8oJTyCX44iU3UPrQK-306" value="- loader: Optional[Loader] = None" style="text;strokeColor=none;fillColor=none;align=left;verticalAlign=top;spacingLeft=4;spacingRight=4;overflow=hidden;rotatable=0;points=[[0,0.5],[1,0.5]];portConstraint=eastwest;whiteSpace=wrap;html=1;" vertex="1" parent="veb8oJTyCX44iU3UPrQK-303">
          <mxGeometry y="82" width="190" height="26" as="geometry" />
        </mxCell>
        <mxCell id="veb8oJTyCX44iU3UPrQK-307" value="- saver: Optional[Saver] = None" style="text;strokeColor=none;fillColor=none;align=left;verticalAlign=top;spacingLeft=4;spacingRight=4;overflow=hidden;rotatable=0;points=[[0,0.5],[1,0.5]];portConstraint=eastwest;whiteSpace=wrap;html=1;" vertex="1" parent="veb8oJTyCX44iU3UPrQK-303">
          <mxGeometry y="108" width="190" height="26" as="geometry" />
        </mxCell>
        <mxCell id="veb8oJTyCX44iU3UPrQK-308" value="" style="line;strokeWidth=1;fillColor=none;align=left;verticalAlign=middle;spacingTop=-1;spacingLeft=3;spacingRight=3;rotatable=0;labelPosition=right;points=[];portConstraint=eastwest;strokeColor=inherit;" vertex="1" parent="veb8oJTyCX44iU3UPrQK-303">
          <mxGeometry y="134" width="190" height="8" as="geometry" />
        </mxCell>
        <mxCell id="veb8oJTyCX44iU3UPrQK-309" value="" style="edgeStyle=orthogonalEdgeStyle;rounded=0;orthogonalLoop=1;jettySize=auto;html=1;" edge="1" parent="1" source="veb8oJTyCX44iU3UPrQK-310" target="veb8oJTyCX44iU3UPrQK-321">
          <mxGeometry relative="1" as="geometry" />
        </mxCell>
        <mxCell id="veb8oJTyCX44iU3UPrQK-310" value="&lt;i style=&quot;font-weight: 400;&quot;&gt;&amp;lt;&amp;lt;Interface&amp;gt;&amp;gt;&lt;/i&gt;&lt;br style=&quot;font-weight: 400;&quot;&gt;ReportBuilder" style="swimlane;fontStyle=1;align=center;verticalAlign=top;childLayout=stackLayout;horizontal=1;startSize=44;horizontalStack=0;resizeParent=1;resizeParentMax=0;resizeLast=0;collapsible=1;marginBottom=0;whiteSpace=wrap;html=1;" vertex="1" parent="1">
          <mxGeometry x="-3842.5" y="1533" width="265" height="78" as="geometry">
            <mxRectangle x="-2160" y="-176" width="100" height="30" as="alternateBounds" />
          </mxGeometry>
        </mxCell>
        <mxCell id="veb8oJTyCX44iU3UPrQK-311" value="" style="line;strokeWidth=1;fillColor=none;align=left;verticalAlign=middle;spacingTop=-1;spacingLeft=3;spacingRight=3;rotatable=0;labelPosition=right;points=[];portConstraint=eastwest;strokeColor=inherit;" vertex="1" parent="veb8oJTyCX44iU3UPrQK-310">
          <mxGeometry y="44" width="265" height="8" as="geometry" />
        </mxCell>
        <mxCell id="veb8oJTyCX44iU3UPrQK-312" value="+ build(**dict[str, Any]): None" style="text;strokeColor=none;fillColor=none;align=left;verticalAlign=top;spacingLeft=4;spacingRight=4;overflow=hidden;rotatable=0;points=[[0,0.5],[1,0.5]];portConstraint=eastwest;whiteSpace=wrap;html=1;" vertex="1" parent="veb8oJTyCX44iU3UPrQK-310">
          <mxGeometry y="52" width="265" height="26" as="geometry" />
        </mxCell>
        <mxCell id="veb8oJTyCX44iU3UPrQK-313" style="edgeStyle=orthogonalEdgeStyle;rounded=0;orthogonalLoop=1;jettySize=auto;html=1;" edge="1" parent="1" source="veb8oJTyCX44iU3UPrQK-314" target="veb8oJTyCX44iU3UPrQK-322">
          <mxGeometry relative="1" as="geometry" />
        </mxCell>
        <mxCell id="veb8oJTyCX44iU3UPrQK-314" value="&lt;i style=&quot;font-weight: 400;&quot;&gt;&amp;lt;&amp;lt;Interface&amp;gt;&amp;gt;&lt;/i&gt;&lt;br style=&quot;font-weight: 400;&quot;&gt;ReportVisualizer" style="swimlane;fontStyle=1;align=center;verticalAlign=top;childLayout=stackLayout;horizontal=1;startSize=44;horizontalStack=0;resizeParent=1;resizeParentMax=0;resizeLast=0;collapsible=1;marginBottom=0;whiteSpace=wrap;html=1;" vertex="1" parent="1">
          <mxGeometry x="-4200" y="1533" width="265" height="104" as="geometry">
            <mxRectangle x="-2160" y="-176" width="100" height="30" as="alternateBounds" />
          </mxGeometry>
        </mxCell>
        <mxCell id="veb8oJTyCX44iU3UPrQK-315" value="+ path_to_save: Path" style="text;strokeColor=none;fillColor=none;align=left;verticalAlign=top;spacingLeft=4;spacingRight=4;overflow=hidden;rotatable=0;points=[[0,0.5],[1,0.5]];portConstraint=eastwest;whiteSpace=wrap;html=1;" vertex="1" parent="veb8oJTyCX44iU3UPrQK-314">
          <mxGeometry y="44" width="265" height="26" as="geometry" />
        </mxCell>
        <mxCell id="veb8oJTyCX44iU3UPrQK-316" value="" style="line;strokeWidth=1;fillColor=none;align=left;verticalAlign=middle;spacingTop=-1;spacingLeft=3;spacingRight=3;rotatable=0;labelPosition=right;points=[];portConstraint=eastwest;strokeColor=inherit;" vertex="1" parent="veb8oJTyCX44iU3UPrQK-314">
          <mxGeometry y="70" width="265" height="8" as="geometry" />
        </mxCell>
        <mxCell id="veb8oJTyCX44iU3UPrQK-317" value="+ draw(ReportBuilder): None" style="text;strokeColor=none;fillColor=none;align=left;verticalAlign=top;spacingLeft=4;spacingRight=4;overflow=hidden;rotatable=0;points=[[0,0.5],[1,0.5]];portConstraint=eastwest;whiteSpace=wrap;html=1;" vertex="1" parent="veb8oJTyCX44iU3UPrQK-314">
          <mxGeometry y="78" width="265" height="26" as="geometry" />
        </mxCell>
        <mxCell id="veb8oJTyCX44iU3UPrQK-318" style="edgeStyle=orthogonalEdgeStyle;rounded=0;orthogonalLoop=1;jettySize=auto;html=1;dashed=1;" edge="1" parent="1" source="veb8oJTyCX44iU3UPrQK-320" target="veb8oJTyCX44iU3UPrQK-284">
          <mxGeometry relative="1" as="geometry">
            <Array as="points">
              <mxPoint x="-3900" y="1261" />
              <mxPoint x="-4240" y="1261" />
            </Array>
          </mxGeometry>
        </mxCell>
        <mxCell id="veb8oJTyCX44iU3UPrQK-320" value="Reporter" style="swimlane;fontStyle=1;align=center;verticalAlign=top;childLayout=stackLayout;horizontal=1;startSize=30;horizontalStack=0;resizeParent=1;resizeParentMax=0;resizeLast=0;collapsible=1;marginBottom=0;whiteSpace=wrap;html=1;" vertex="1" parent="1">
          <mxGeometry x="-4040" y="1361" width="280" height="142" as="geometry">
            <mxRectangle x="-2160" y="-176" width="100" height="30" as="alternateBounds" />
          </mxGeometry>
        </mxCell>
        <mxCell id="veb8oJTyCX44iU3UPrQK-321" value="+ report_builder: ReportBuilder" style="text;strokeColor=none;fillColor=none;align=left;verticalAlign=top;spacingLeft=4;spacingRight=4;overflow=hidden;rotatable=0;points=[[0,0.5],[1,0.5]];portConstraint=eastwest;whiteSpace=wrap;html=1;" vertex="1" parent="veb8oJTyCX44iU3UPrQK-320">
          <mxGeometry y="30" width="280" height="26" as="geometry" />
        </mxCell>
        <mxCell id="veb8oJTyCX44iU3UPrQK-322" value="+ report_visualizer: ReportVisualizer" style="text;strokeColor=none;fillColor=none;align=left;verticalAlign=top;spacingLeft=4;spacingRight=4;overflow=hidden;rotatable=0;points=[[0,0.5],[1,0.5]];portConstraint=eastwest;whiteSpace=wrap;html=1;" vertex="1" parent="veb8oJTyCX44iU3UPrQK-320">
          <mxGeometry y="56" width="280" height="26" as="geometry" />
        </mxCell>
        <mxCell id="veb8oJTyCX44iU3UPrQK-323" value="+ path_to_save: Path" style="text;strokeColor=none;fillColor=none;align=left;verticalAlign=top;spacingLeft=4;spacingRight=4;overflow=hidden;rotatable=0;points=[[0,0.5],[1,0.5]];portConstraint=eastwest;whiteSpace=wrap;html=1;" vertex="1" parent="veb8oJTyCX44iU3UPrQK-320">
          <mxGeometry y="82" width="280" height="26" as="geometry" />
        </mxCell>
        <mxCell id="veb8oJTyCX44iU3UPrQK-324" value="" style="line;strokeWidth=1;fillColor=none;align=left;verticalAlign=middle;spacingTop=-1;spacingLeft=3;spacingRight=3;rotatable=0;labelPosition=right;points=[];portConstraint=eastwest;strokeColor=inherit;" vertex="1" parent="veb8oJTyCX44iU3UPrQK-320">
          <mxGeometry y="108" width="280" height="8" as="geometry" />
        </mxCell>
        <mxCell id="veb8oJTyCX44iU3UPrQK-325" value="+ create_report(**dict[str, Any]): None" style="text;strokeColor=none;fillColor=none;align=left;verticalAlign=top;spacingLeft=4;spacingRight=4;overflow=hidden;rotatable=0;points=[[0,0.5],[1,0.5]];portConstraint=eastwest;whiteSpace=wrap;html=1;" vertex="1" parent="veb8oJTyCX44iU3UPrQK-320">
          <mxGeometry y="116" width="280" height="26" as="geometry" />
        </mxCell>
        <mxCell id="veb8oJTyCX44iU3UPrQK-326" style="edgeStyle=orthogonalEdgeStyle;rounded=0;orthogonalLoop=1;jettySize=auto;html=1;dashed=1;" edge="1" parent="1" source="veb8oJTyCX44iU3UPrQK-327" target="veb8oJTyCX44iU3UPrQK-250">
          <mxGeometry relative="1" as="geometry">
            <Array as="points">
              <mxPoint x="-2820" y="1322" />
              <mxPoint x="-3055" y="1322" />
            </Array>
          </mxGeometry>
        </mxCell>
        <mxCell id="veb8oJTyCX44iU3UPrQK-327" value="ReportGenerationStep" style="swimlane;fontStyle=1;align=center;verticalAlign=top;childLayout=stackLayout;horizontal=1;startSize=30;horizontalStack=0;resizeParent=1;resizeParentMax=0;resizeLast=0;collapsible=1;marginBottom=0;whiteSpace=wrap;html=1;" vertex="1" parent="1">
          <mxGeometry x="-2885" y="1360" width="190" height="116" as="geometry">
            <mxRectangle x="-2160" y="-176" width="100" height="30" as="alternateBounds" />
          </mxGeometry>
        </mxCell>
        <mxCell id="veb8oJTyCX44iU3UPrQK-328" value="- reporter: Reporter" style="text;strokeColor=none;fillColor=none;align=left;verticalAlign=top;spacingLeft=4;spacingRight=4;overflow=hidden;rotatable=0;points=[[0,0.5],[1,0.5]];portConstraint=eastwest;whiteSpace=wrap;html=1;" vertex="1" parent="veb8oJTyCX44iU3UPrQK-327">
          <mxGeometry y="30" width="190" height="26" as="geometry" />
        </mxCell>
        <mxCell id="veb8oJTyCX44iU3UPrQK-329" value="- config: Optional[Path] = None" style="text;strokeColor=none;fillColor=none;align=left;verticalAlign=top;spacingLeft=4;spacingRight=4;overflow=hidden;rotatable=0;points=[[0,0.5],[1,0.5]];portConstraint=eastwest;whiteSpace=wrap;html=1;" vertex="1" parent="veb8oJTyCX44iU3UPrQK-327">
          <mxGeometry y="56" width="190" height="26" as="geometry" />
        </mxCell>
        <mxCell id="veb8oJTyCX44iU3UPrQK-330" value="- loader: Optional[Loader] = None" style="text;strokeColor=none;fillColor=none;align=left;verticalAlign=top;spacingLeft=4;spacingRight=4;overflow=hidden;rotatable=0;points=[[0,0.5],[1,0.5]];portConstraint=eastwest;whiteSpace=wrap;html=1;" vertex="1" parent="veb8oJTyCX44iU3UPrQK-327">
          <mxGeometry y="82" width="190" height="26" as="geometry" />
        </mxCell>
        <mxCell id="veb8oJTyCX44iU3UPrQK-331" value="" style="line;strokeWidth=1;fillColor=none;align=left;verticalAlign=middle;spacingTop=-1;spacingLeft=3;spacingRight=3;rotatable=0;labelPosition=right;points=[];portConstraint=eastwest;strokeColor=inherit;" vertex="1" parent="veb8oJTyCX44iU3UPrQK-327">
          <mxGeometry y="108" width="190" height="8" as="geometry" />
        </mxCell>
        <mxCell id="veb8oJTyCX44iU3UPrQK-332" value="Pipeline" style="swimlane;fontStyle=1;align=center;verticalAlign=top;childLayout=stackLayout;horizontal=1;startSize=30;horizontalStack=0;resizeParent=1;resizeParentMax=0;resizeLast=0;collapsible=1;marginBottom=0;whiteSpace=wrap;html=1;" vertex="1" parent="1">
          <mxGeometry x="-3585" y="750" width="270" height="376" as="geometry">
            <mxRectangle x="-2160" y="-176" width="100" height="30" as="alternateBounds" />
          </mxGeometry>
        </mxCell>
        <mxCell id="veb8oJTyCX44iU3UPrQK-333" value="+ steps: list[Step]" style="text;strokeColor=none;fillColor=none;align=left;verticalAlign=top;spacingLeft=4;spacingRight=4;overflow=hidden;rotatable=0;points=[[0,0.5],[1,0.5]];portConstraint=eastwest;whiteSpace=wrap;html=1;" vertex="1" parent="veb8oJTyCX44iU3UPrQK-332">
          <mxGeometry y="30" width="270" height="26" as="geometry" />
        </mxCell>
        <mxCell id="veb8oJTyCX44iU3UPrQK-334" value="+ gen_data_storage: Optional[Storage] = None&lt;div&gt;&amp;nbsp;&lt;/div&gt;" style="text;strokeColor=none;fillColor=none;align=left;verticalAlign=top;spacingLeft=4;spacingRight=4;overflow=hidden;rotatable=0;points=[[0,0.5],[1,0.5]];portConstraint=eastwest;whiteSpace=wrap;html=1;" vertex="1" parent="veb8oJTyCX44iU3UPrQK-332">
          <mxGeometry y="56" width="270" height="26" as="geometry" />
        </mxCell>
        <mxCell id="veb8oJTyCX44iU3UPrQK-335" value="+ result_storage: Optional[Storage] = None&lt;div&gt;&amp;nbsp;&lt;/div&gt;" style="text;strokeColor=none;fillColor=none;align=left;verticalAlign=top;spacingLeft=4;spacingRight=4;overflow=hidden;rotatable=0;points=[[0,0.5],[1,0.5]];portConstraint=eastwest;whiteSpace=wrap;html=1;" vertex="1" parent="veb8oJTyCX44iU3UPrQK-332">
          <mxGeometry y="82" width="270" height="26" as="geometry" />
        </mxCell>
        <mxCell id="veb8oJTyCX44iU3UPrQK-336" value="- gen_data_fields: set[str] = {}&lt;div&gt;&lt;div&gt;&amp;nbsp;&lt;/div&gt;&lt;/div&gt;" style="text;strokeColor=none;fillColor=none;align=left;verticalAlign=top;spacingLeft=4;spacingRight=4;overflow=hidden;rotatable=0;points=[[0,0.5],[1,0.5]];portConstraint=eastwest;whiteSpace=wrap;html=1;" vertex="1" parent="veb8oJTyCX44iU3UPrQK-332">
          <mxGeometry y="108" width="270" height="26" as="geometry" />
        </mxCell>
        <mxCell id="veb8oJTyCX44iU3UPrQK-337" value="- result_fields: set[str] = {}&lt;div&gt;&lt;div&gt;&amp;nbsp;&lt;/div&gt;&lt;/div&gt;" style="text;strokeColor=none;fillColor=none;align=left;verticalAlign=top;spacingLeft=4;spacingRight=4;overflow=hidden;rotatable=0;points=[[0,0.5],[1,0.5]];portConstraint=eastwest;whiteSpace=wrap;html=1;" vertex="1" parent="veb8oJTyCX44iU3UPrQK-332">
          <mxGeometry y="134" width="270" height="26" as="geometry" />
        </mxCell>
        <mxCell id="veb8oJTyCX44iU3UPrQK-338" value="- meta_data: dict[str, Any] = {}&lt;div&gt;&lt;div&gt;&amp;nbsp;&lt;/div&gt;&lt;/div&gt;" style="text;strokeColor=none;fillColor=none;align=left;verticalAlign=top;spacingLeft=4;spacingRight=4;overflow=hidden;rotatable=0;points=[[0,0.5],[1,0.5]];portConstraint=eastwest;whiteSpace=wrap;html=1;" vertex="1" parent="veb8oJTyCX44iU3UPrQK-332">
          <mxGeometry y="160" width="270" height="26" as="geometry" />
        </mxCell>
        <mxCell id="veb8oJTyCX44iU3UPrQK-339" value="- gen_data_saver: Optional[Saver] = None&lt;div&gt;&lt;div&gt;&amp;nbsp;&lt;/div&gt;&lt;/div&gt;" style="text;strokeColor=none;fillColor=none;align=left;verticalAlign=top;spacingLeft=4;spacingRight=4;overflow=hidden;rotatable=0;points=[[0,0.5],[1,0.5]];portConstraint=eastwest;whiteSpace=wrap;html=1;" vertex="1" parent="veb8oJTyCX44iU3UPrQK-332">
          <mxGeometry y="186" width="270" height="26" as="geometry" />
        </mxCell>
        <mxCell id="veb8oJTyCX44iU3UPrQK-340" value="- gen_data_loader: Optional[Loader] = None&lt;div&gt;&lt;div&gt;&amp;nbsp;&lt;/div&gt;&lt;/div&gt;" style="text;strokeColor=none;fillColor=none;align=left;verticalAlign=top;spacingLeft=4;spacingRight=4;overflow=hidden;rotatable=0;points=[[0,0.5],[1,0.5]];portConstraint=eastwest;whiteSpace=wrap;html=1;" vertex="1" parent="veb8oJTyCX44iU3UPrQK-332">
          <mxGeometry y="212" width="270" height="26" as="geometry" />
        </mxCell>
        <mxCell id="veb8oJTyCX44iU3UPrQK-341" value="- result_saver: Optional[Saver] = None&lt;div&gt;&lt;div&gt;&amp;nbsp;&lt;/div&gt;&lt;/div&gt;" style="text;strokeColor=none;fillColor=none;align=left;verticalAlign=top;spacingLeft=4;spacingRight=4;overflow=hidden;rotatable=0;points=[[0,0.5],[1,0.5]];portConstraint=eastwest;whiteSpace=wrap;html=1;" vertex="1" parent="veb8oJTyCX44iU3UPrQK-332">
          <mxGeometry y="238" width="270" height="26" as="geometry" />
        </mxCell>
        <mxCell id="veb8oJTyCX44iU3UPrQK-342" value="- result_loader: Optional[Loader] = None&lt;div&gt;&lt;div&gt;&amp;nbsp;&lt;/div&gt;&lt;/div&gt;" style="text;strokeColor=none;fillColor=none;align=left;verticalAlign=top;spacingLeft=4;spacingRight=4;overflow=hidden;rotatable=0;points=[[0,0.5],[1,0.5]];portConstraint=eastwest;whiteSpace=wrap;html=1;" vertex="1" parent="veb8oJTyCX44iU3UPrQK-332">
          <mxGeometry y="264" width="270" height="26" as="geometry" />
        </mxCell>
        <mxCell id="veb8oJTyCX44iU3UPrQK-343" value="" style="line;strokeWidth=1;fillColor=none;align=left;verticalAlign=middle;spacingTop=-1;spacingLeft=3;spacingRight=3;rotatable=0;labelPosition=right;points=[];portConstraint=eastwest;strokeColor=inherit;" vertex="1" parent="veb8oJTyCX44iU3UPrQK-332">
          <mxGeometry y="290" width="270" height="8" as="geometry" />
        </mxCell>
        <mxCell id="veb8oJTyCX44iU3UPrQK-344" value="+ config_pipeline(): bool" style="text;strokeColor=none;fillColor=none;align=left;verticalAlign=top;spacingLeft=4;spacingRight=4;overflow=hidden;rotatable=0;points=[[0,0.5],[1,0.5]];portConstraint=eastwest;whiteSpace=wrap;html=1;" vertex="1" parent="veb8oJTyCX44iU3UPrQK-332">
          <mxGeometry y="298" width="270" height="26" as="geometry" />
        </mxCell>
        <mxCell id="veb8oJTyCX44iU3UPrQK-345" value="- steup_db(set[str]): Storage" style="text;strokeColor=none;fillColor=none;align=left;verticalAlign=top;spacingLeft=4;spacingRight=4;overflow=hidden;rotatable=0;points=[[0,0.5],[1,0.5]];portConstraint=eastwest;whiteSpace=wrap;html=1;" vertex="1" parent="veb8oJTyCX44iU3UPrQK-332">
          <mxGeometry y="324" width="270" height="26" as="geometry" />
        </mxCell>
        <mxCell id="veb8oJTyCX44iU3UPrQK-346" value="+ run(): None" style="text;strokeColor=none;fillColor=none;align=left;verticalAlign=top;spacingLeft=4;spacingRight=4;overflow=hidden;rotatable=0;points=[[0,0.5],[1,0.5]];portConstraint=eastwest;whiteSpace=wrap;html=1;" vertex="1" parent="veb8oJTyCX44iU3UPrQK-332">
          <mxGeometry y="350" width="270" height="26" as="geometry" />
        </mxCell>
      </root>
    </mxGraphModel>
  </diagram>
</mxfile>
